<?xml version="1.0" encoding="utf-8" standalone="no"?>
<!DOCTYPE svg PUBLIC "-//W3C//DTD SVG 1.1//EN"
  "http://www.w3.org/Graphics/SVG/1.1/DTD/svg11.dtd">
<svg xmlns:xlink="http://www.w3.org/1999/xlink" width="1008pt" height="720pt" viewBox="0 0 1008 720" xmlns="http://www.w3.org/2000/svg" version="1.1">
 <metadata>
  <rdf:RDF xmlns:dc="http://purl.org/dc/elements/1.1/" xmlns:cc="http://creativecommons.org/ns#" xmlns:rdf="http://www.w3.org/1999/02/22-rdf-syntax-ns#">
   <cc:Work>
    <dc:type rdf:resource="http://purl.org/dc/dcmitype/StillImage"/>
    <dc:date>2025-03-05T18:44:04.453020</dc:date>
    <dc:format>image/svg+xml</dc:format>
    <dc:creator>
     <cc:Agent>
      <dc:title>Matplotlib v3.10.0, https://matplotlib.org/</dc:title>
     </cc:Agent>
    </dc:creator>
   </cc:Work>
  </rdf:RDF>
 </metadata>
 <defs>
  <style type="text/css">*{stroke-linejoin: round; stroke-linecap: butt}</style>
 </defs>
 <g id="figure_1">
  <g id="patch_1">
   <path d="M 0 720 
L 1008 720 
L 1008 0 
L 0 0 
z
" style="fill: #ffffff"/>
  </g>
  <g id="axes_1">
   <g id="patch_2">
    <path d="M 809.995 346.085 
C 809.995 305.902105 802.079846 266.109938 786.702518 228.985783 
C 771.325189 191.861629 748.784737 158.127458 720.37114 129.71386 
C 691.957542 101.300263 658.223371 78.759811 621.099217 63.382482 
C 583.975062 48.005154 544.182895 40.09 504 40.09 
C 463.817105 40.09 424.024938 48.005154 386.900783 63.382482 
C 349.776629 78.759811 316.042458 101.300263 287.62886 129.71386 
C 259.215263 158.127458 236.674811 191.861629 221.297482 228.985783 
C 205.920154 266.109938 198.005 305.902105 198.005 346.085 
C 198.005 386.267895 205.920154 426.060062 221.297482 463.184217 
C 236.674811 500.308371 259.215263 534.042542 287.62886 562.45614 
C 316.042458 590.869737 349.776629 613.410189 386.900783 628.787518 
C 424.024938 644.164846 463.817105 652.08 504 652.08 
C 544.182895 652.08 583.975062 644.164846 621.099217 628.787518 
C 658.223371 613.410189 691.957542 590.869737 720.37114 562.45614 
C 748.784737 534.042542 771.325189 500.308371 786.702518 463.184217 
C 802.079846 426.060062 809.995 386.267895 809.995 346.085 
M 504 346.085 
C 504 346.085 504 346.085 504 346.085 
C 504 346.085 504 346.085 504 346.085 
C 504 346.085 504 346.085 504 346.085 
C 504 346.085 504 346.085 504 346.085 
C 504 346.085 504 346.085 504 346.085 
C 504 346.085 504 346.085 504 346.085 
C 504 346.085 504 346.085 504 346.085 
C 504 346.085 504 346.085 504 346.085 
C 504 346.085 504 346.085 504 346.085 
C 504 346.085 504 346.085 504 346.085 
C 504 346.085 504 346.085 504 346.085 
C 504 346.085 504 346.085 504 346.085 
C 504 346.085 504 346.085 504 346.085 
C 504 346.085 504 346.085 504 346.085 
C 504 346.085 504 346.085 504 346.085 
C 504 346.085 504 346.085 504 346.085 
z
" style="fill: #eaeaf2"/>
   </g>
   <g id="matplotlib.axis_1">
    <g id="xtick_1">
     <g id="line2d_1">
      <path d="M 504 346.085 
L 809.995 346.085 
" clip-path="url(#pb784b99981)" style="fill: none; stroke: #ffffff; stroke-linecap: round"/>
     </g>
     <g id="text_1">
      <!-- aesthetic quality -->
      <g style="fill: #262626" transform="translate(774.63125 350.1275) scale(0.16 -0.16)">
       <defs>
        <path id="ArialMT-61" d="M 2588 409 
Q 2275 144 1986 34 
Q 1697 -75 1366 -75 
Q 819 -75 525 192 
Q 231 459 231 875 
Q 231 1119 342 1320 
Q 453 1522 633 1644 
Q 813 1766 1038 1828 
Q 1203 1872 1538 1913 
Q 2219 1994 2541 2106 
Q 2544 2222 2544 2253 
Q 2544 2597 2384 2738 
Q 2169 2928 1744 2928 
Q 1347 2928 1158 2789 
Q 969 2650 878 2297 
L 328 2372 
Q 403 2725 575 2942 
Q 747 3159 1072 3276 
Q 1397 3394 1825 3394 
Q 2250 3394 2515 3294 
Q 2781 3194 2906 3042 
Q 3031 2891 3081 2659 
Q 3109 2516 3109 2141 
L 3109 1391 
Q 3109 606 3145 398 
Q 3181 191 3288 0 
L 2700 0 
Q 2613 175 2588 409 
z
M 2541 1666 
Q 2234 1541 1622 1453 
Q 1275 1403 1131 1340 
Q 988 1278 909 1158 
Q 831 1038 831 891 
Q 831 666 1001 516 
Q 1172 366 1500 366 
Q 1825 366 2078 508 
Q 2331 650 2450 897 
Q 2541 1088 2541 1459 
L 2541 1666 
z
" transform="scale(0.015625)"/>
        <path id="ArialMT-65" d="M 2694 1069 
L 3275 997 
Q 3138 488 2766 206 
Q 2394 -75 1816 -75 
Q 1088 -75 661 373 
Q 234 822 234 1631 
Q 234 2469 665 2931 
Q 1097 3394 1784 3394 
Q 2450 3394 2872 2941 
Q 3294 2488 3294 1666 
Q 3294 1616 3291 1516 
L 816 1516 
Q 847 969 1125 678 
Q 1403 388 1819 388 
Q 2128 388 2347 550 
Q 2566 713 2694 1069 
z
M 847 1978 
L 2700 1978 
Q 2663 2397 2488 2606 
Q 2219 2931 1791 2931 
Q 1403 2931 1139 2672 
Q 875 2413 847 1978 
z
" transform="scale(0.015625)"/>
        <path id="ArialMT-73" d="M 197 991 
L 753 1078 
Q 800 744 1014 566 
Q 1228 388 1613 388 
Q 2000 388 2187 545 
Q 2375 703 2375 916 
Q 2375 1106 2209 1216 
Q 2094 1291 1634 1406 
Q 1016 1563 777 1677 
Q 538 1791 414 1992 
Q 291 2194 291 2438 
Q 291 2659 392 2848 
Q 494 3038 669 3163 
Q 800 3259 1026 3326 
Q 1253 3394 1513 3394 
Q 1903 3394 2198 3281 
Q 2494 3169 2634 2976 
Q 2775 2784 2828 2463 
L 2278 2388 
Q 2241 2644 2061 2787 
Q 1881 2931 1553 2931 
Q 1166 2931 1000 2803 
Q 834 2675 834 2503 
Q 834 2394 903 2306 
Q 972 2216 1119 2156 
Q 1203 2125 1616 2013 
Q 2213 1853 2448 1751 
Q 2684 1650 2818 1456 
Q 2953 1263 2953 975 
Q 2953 694 2789 445 
Q 2625 197 2315 61 
Q 2006 -75 1616 -75 
Q 969 -75 630 194 
Q 291 463 197 991 
z
" transform="scale(0.015625)"/>
        <path id="ArialMT-74" d="M 1650 503 
L 1731 6 
Q 1494 -44 1306 -44 
Q 1000 -44 831 53 
Q 663 150 594 308 
Q 525 466 525 972 
L 525 2881 
L 113 2881 
L 113 3319 
L 525 3319 
L 525 4141 
L 1084 4478 
L 1084 3319 
L 1650 3319 
L 1650 2881 
L 1084 2881 
L 1084 941 
Q 1084 700 1114 631 
Q 1144 563 1211 522 
Q 1278 481 1403 481 
Q 1497 481 1650 503 
z
" transform="scale(0.015625)"/>
        <path id="ArialMT-68" d="M 422 0 
L 422 4581 
L 984 4581 
L 984 2938 
Q 1378 3394 1978 3394 
Q 2347 3394 2619 3248 
Q 2891 3103 3008 2847 
Q 3125 2591 3125 2103 
L 3125 0 
L 2563 0 
L 2563 2103 
Q 2563 2525 2380 2717 
Q 2197 2909 1863 2909 
Q 1613 2909 1392 2779 
Q 1172 2650 1078 2428 
Q 984 2206 984 1816 
L 984 0 
L 422 0 
z
" transform="scale(0.015625)"/>
        <path id="ArialMT-69" d="M 425 3934 
L 425 4581 
L 988 4581 
L 988 3934 
L 425 3934 
z
M 425 0 
L 425 3319 
L 988 3319 
L 988 0 
L 425 0 
z
" transform="scale(0.015625)"/>
        <path id="ArialMT-63" d="M 2588 1216 
L 3141 1144 
Q 3050 572 2676 248 
Q 2303 -75 1759 -75 
Q 1078 -75 664 370 
Q 250 816 250 1647 
Q 250 2184 428 2587 
Q 606 2991 970 3192 
Q 1334 3394 1763 3394 
Q 2303 3394 2647 3120 
Q 2991 2847 3088 2344 
L 2541 2259 
Q 2463 2594 2264 2762 
Q 2066 2931 1784 2931 
Q 1359 2931 1093 2626 
Q 828 2322 828 1663 
Q 828 994 1084 691 
Q 1341 388 1753 388 
Q 2084 388 2306 591 
Q 2528 794 2588 1216 
z
" transform="scale(0.015625)"/>
        <path id="ArialMT-20" transform="scale(0.015625)"/>
        <path id="ArialMT-71" d="M 2538 -1272 
L 2538 353 
Q 2406 169 2170 47 
Q 1934 -75 1669 -75 
Q 1078 -75 651 397 
Q 225 869 225 1691 
Q 225 2191 398 2587 
Q 572 2984 901 3189 
Q 1231 3394 1625 3394 
Q 2241 3394 2594 2875 
L 2594 3319 
L 3100 3319 
L 3100 -1272 
L 2538 -1272 
z
M 803 1669 
Q 803 1028 1072 708 
Q 1341 388 1716 388 
Q 2075 388 2334 692 
Q 2594 997 2594 1619 
Q 2594 2281 2320 2615 
Q 2047 2950 1678 2950 
Q 1313 2950 1058 2639 
Q 803 2328 803 1669 
z
" transform="scale(0.015625)"/>
        <path id="ArialMT-75" d="M 2597 0 
L 2597 488 
Q 2209 -75 1544 -75 
Q 1250 -75 995 37 
Q 741 150 617 320 
Q 494 491 444 738 
Q 409 903 409 1263 
L 409 3319 
L 972 3319 
L 972 1478 
Q 972 1038 1006 884 
Q 1059 663 1231 536 
Q 1403 409 1656 409 
Q 1909 409 2131 539 
Q 2353 669 2445 892 
Q 2538 1116 2538 1541 
L 2538 3319 
L 3100 3319 
L 3100 0 
L 2597 0 
z
" transform="scale(0.015625)"/>
        <path id="ArialMT-6c" d="M 409 0 
L 409 4581 
L 972 4581 
L 972 0 
L 409 0 
z
" transform="scale(0.015625)"/>
        <path id="ArialMT-79" d="M 397 -1278 
L 334 -750 
Q 519 -800 656 -800 
Q 844 -800 956 -737 
Q 1069 -675 1141 -563 
Q 1194 -478 1313 -144 
Q 1328 -97 1363 -6 
L 103 3319 
L 709 3319 
L 1400 1397 
Q 1534 1031 1641 628 
Q 1738 1016 1872 1384 
L 2581 3319 
L 3144 3319 
L 1881 -56 
Q 1678 -603 1566 -809 
Q 1416 -1088 1222 -1217 
Q 1028 -1347 759 -1347 
Q 597 -1347 397 -1278 
z
" transform="scale(0.015625)"/>
       </defs>
       <use xlink:href="#ArialMT-61"/>
       <use xlink:href="#ArialMT-65" transform="translate(55.615234 0)"/>
       <use xlink:href="#ArialMT-73" transform="translate(111.230469 0)"/>
       <use xlink:href="#ArialMT-74" transform="translate(161.230469 0)"/>
       <use xlink:href="#ArialMT-68" transform="translate(189.013672 0)"/>
       <use xlink:href="#ArialMT-65" transform="translate(244.628906 0)"/>
       <use xlink:href="#ArialMT-74" transform="translate(300.244141 0)"/>
       <use xlink:href="#ArialMT-69" transform="translate(328.027344 0)"/>
       <use xlink:href="#ArialMT-63" transform="translate(350.244141 0)"/>
       <use xlink:href="#ArialMT-20" transform="translate(400.244141 0)"/>
       <use xlink:href="#ArialMT-71" transform="translate(428.027344 0)"/>
       <use xlink:href="#ArialMT-75" transform="translate(483.642578 0)"/>
       <use xlink:href="#ArialMT-61" transform="translate(539.257812 0)"/>
       <use xlink:href="#ArialMT-6c" transform="translate(594.873047 0)"/>
       <use xlink:href="#ArialMT-69" transform="translate(617.089844 0)"/>
       <use xlink:href="#ArialMT-74" transform="translate(639.306641 0)"/>
       <use xlink:href="#ArialMT-79" transform="translate(667.089844 0)"/>
      </g>
     </g>
    </g>
    <g id="xtick_2">
     <g id="line2d_2">
      <path d="M 504 346.085 
L 786.702518 228.985783 
" clip-path="url(#pb784b99981)" style="fill: none; stroke: #ffffff; stroke-linecap: round"/>
     </g>
     <g id="text_2">
      <!-- appearance style -->
      <g style="fill: #262626" transform="translate(746.102867 224.609248) scale(0.16 -0.16)">
       <defs>
        <path id="ArialMT-70" d="M 422 -1272 
L 422 3319 
L 934 3319 
L 934 2888 
Q 1116 3141 1344 3267 
Q 1572 3394 1897 3394 
Q 2322 3394 2647 3175 
Q 2972 2956 3137 2557 
Q 3303 2159 3303 1684 
Q 3303 1175 3120 767 
Q 2938 359 2589 142 
Q 2241 -75 1856 -75 
Q 1575 -75 1351 44 
Q 1128 163 984 344 
L 984 -1272 
L 422 -1272 
z
M 931 1641 
Q 931 1000 1190 694 
Q 1450 388 1819 388 
Q 2194 388 2461 705 
Q 2728 1022 2728 1688 
Q 2728 2322 2467 2637 
Q 2206 2953 1844 2953 
Q 1484 2953 1207 2617 
Q 931 2281 931 1641 
z
" transform="scale(0.015625)"/>
        <path id="ArialMT-72" d="M 416 0 
L 416 3319 
L 922 3319 
L 922 2816 
Q 1116 3169 1280 3281 
Q 1444 3394 1641 3394 
Q 1925 3394 2219 3213 
L 2025 2691 
Q 1819 2813 1613 2813 
Q 1428 2813 1281 2702 
Q 1134 2591 1072 2394 
Q 978 2094 978 1738 
L 978 0 
L 416 0 
z
" transform="scale(0.015625)"/>
        <path id="ArialMT-6e" d="M 422 0 
L 422 3319 
L 928 3319 
L 928 2847 
Q 1294 3394 1984 3394 
Q 2284 3394 2536 3286 
Q 2788 3178 2913 3003 
Q 3038 2828 3088 2588 
Q 3119 2431 3119 2041 
L 3119 0 
L 2556 0 
L 2556 2019 
Q 2556 2363 2490 2533 
Q 2425 2703 2258 2804 
Q 2091 2906 1866 2906 
Q 1506 2906 1245 2678 
Q 984 2450 984 1813 
L 984 0 
L 422 0 
z
" transform="scale(0.015625)"/>
       </defs>
       <use xlink:href="#ArialMT-61"/>
       <use xlink:href="#ArialMT-70" transform="translate(55.615234 0)"/>
       <use xlink:href="#ArialMT-70" transform="translate(111.230469 0)"/>
       <use xlink:href="#ArialMT-65" transform="translate(166.845703 0)"/>
       <use xlink:href="#ArialMT-61" transform="translate(222.460938 0)"/>
       <use xlink:href="#ArialMT-72" transform="translate(278.076172 0)"/>
       <use xlink:href="#ArialMT-61" transform="translate(311.376953 0)"/>
       <use xlink:href="#ArialMT-6e" transform="translate(366.992188 0)"/>
       <use xlink:href="#ArialMT-63" transform="translate(422.607422 0)"/>
       <use xlink:href="#ArialMT-65" transform="translate(472.607422 0)"/>
       <use xlink:href="#ArialMT-20" transform="translate(528.222656 0)"/>
       <use xlink:href="#ArialMT-73" transform="translate(556.005859 0)"/>
       <use xlink:href="#ArialMT-74" transform="translate(606.005859 0)"/>
       <use xlink:href="#ArialMT-79" transform="translate(633.789062 0)"/>
       <use xlink:href="#ArialMT-6c" transform="translate(683.789062 0)"/>
       <use xlink:href="#ArialMT-65" transform="translate(706.005859 0)"/>
      </g>
     </g>
    </g>
    <g id="xtick_3">
     <g id="line2d_3">
      <path d="M 504 346.085 
L 720.37114 129.71386 
" clip-path="url(#pb784b99981)" style="fill: none; stroke: #ffffff; stroke-linecap: round"/>
     </g>
     <g id="text_3">
      <!-- background consistency -->
      <g style="fill: #262626" transform="translate(650.104989 118.200011) scale(0.16 -0.16)">
       <defs>
        <path id="ArialMT-62" d="M 941 0 
L 419 0 
L 419 4581 
L 981 4581 
L 981 2947 
Q 1338 3394 1891 3394 
Q 2197 3394 2470 3270 
Q 2744 3147 2920 2923 
Q 3097 2700 3197 2384 
Q 3297 2069 3297 1709 
Q 3297 856 2875 390 
Q 2453 -75 1863 -75 
Q 1275 -75 941 416 
L 941 0 
z
M 934 1684 
Q 934 1088 1097 822 
Q 1363 388 1816 388 
Q 2184 388 2453 708 
Q 2722 1028 2722 1663 
Q 2722 2313 2464 2622 
Q 2206 2931 1841 2931 
Q 1472 2931 1203 2611 
Q 934 2291 934 1684 
z
" transform="scale(0.015625)"/>
        <path id="ArialMT-6b" d="M 425 0 
L 425 4581 
L 988 4581 
L 988 1969 
L 2319 3319 
L 3047 3319 
L 1778 2088 
L 3175 0 
L 2481 0 
L 1384 1697 
L 988 1316 
L 988 0 
L 425 0 
z
" transform="scale(0.015625)"/>
        <path id="ArialMT-67" d="M 319 -275 
L 866 -356 
Q 900 -609 1056 -725 
Q 1266 -881 1628 -881 
Q 2019 -881 2231 -725 
Q 2444 -569 2519 -288 
Q 2563 -116 2559 434 
Q 2191 0 1641 0 
Q 956 0 581 494 
Q 206 988 206 1678 
Q 206 2153 378 2554 
Q 550 2956 876 3175 
Q 1203 3394 1644 3394 
Q 2231 3394 2613 2919 
L 2613 3319 
L 3131 3319 
L 3131 450 
Q 3131 -325 2973 -648 
Q 2816 -972 2473 -1159 
Q 2131 -1347 1631 -1347 
Q 1038 -1347 672 -1080 
Q 306 -813 319 -275 
z
M 784 1719 
Q 784 1066 1043 766 
Q 1303 466 1694 466 
Q 2081 466 2343 764 
Q 2606 1063 2606 1700 
Q 2606 2309 2336 2618 
Q 2066 2928 1684 2928 
Q 1309 2928 1046 2623 
Q 784 2319 784 1719 
z
" transform="scale(0.015625)"/>
        <path id="ArialMT-6f" d="M 213 1659 
Q 213 2581 725 3025 
Q 1153 3394 1769 3394 
Q 2453 3394 2887 2945 
Q 3322 2497 3322 1706 
Q 3322 1066 3130 698 
Q 2938 331 2570 128 
Q 2203 -75 1769 -75 
Q 1072 -75 642 372 
Q 213 819 213 1659 
z
M 791 1659 
Q 791 1022 1069 705 
Q 1347 388 1769 388 
Q 2188 388 2466 706 
Q 2744 1025 2744 1678 
Q 2744 2294 2464 2611 
Q 2184 2928 1769 2928 
Q 1347 2928 1069 2612 
Q 791 2297 791 1659 
z
" transform="scale(0.015625)"/>
        <path id="ArialMT-64" d="M 2575 0 
L 2575 419 
Q 2259 -75 1647 -75 
Q 1250 -75 917 144 
Q 584 363 401 755 
Q 219 1147 219 1656 
Q 219 2153 384 2558 
Q 550 2963 881 3178 
Q 1213 3394 1622 3394 
Q 1922 3394 2156 3267 
Q 2391 3141 2538 2938 
L 2538 4581 
L 3097 4581 
L 3097 0 
L 2575 0 
z
M 797 1656 
Q 797 1019 1065 703 
Q 1334 388 1700 388 
Q 2069 388 2326 689 
Q 2584 991 2584 1609 
Q 2584 2291 2321 2609 
Q 2059 2928 1675 2928 
Q 1300 2928 1048 2622 
Q 797 2316 797 1656 
z
" transform="scale(0.015625)"/>
       </defs>
       <use xlink:href="#ArialMT-62"/>
       <use xlink:href="#ArialMT-61" transform="translate(55.615234 0)"/>
       <use xlink:href="#ArialMT-63" transform="translate(111.230469 0)"/>
       <use xlink:href="#ArialMT-6b" transform="translate(161.230469 0)"/>
       <use xlink:href="#ArialMT-67" transform="translate(211.230469 0)"/>
       <use xlink:href="#ArialMT-72" transform="translate(266.845703 0)"/>
       <use xlink:href="#ArialMT-6f" transform="translate(300.146484 0)"/>
       <use xlink:href="#ArialMT-75" transform="translate(355.761719 0)"/>
       <use xlink:href="#ArialMT-6e" transform="translate(411.376953 0)"/>
       <use xlink:href="#ArialMT-64" transform="translate(466.992188 0)"/>
       <use xlink:href="#ArialMT-20" transform="translate(522.607422 0)"/>
       <use xlink:href="#ArialMT-63" transform="translate(550.390625 0)"/>
       <use xlink:href="#ArialMT-6f" transform="translate(600.390625 0)"/>
       <use xlink:href="#ArialMT-6e" transform="translate(656.005859 0)"/>
       <use xlink:href="#ArialMT-73" transform="translate(711.621094 0)"/>
       <use xlink:href="#ArialMT-69" transform="translate(761.621094 0)"/>
       <use xlink:href="#ArialMT-73" transform="translate(783.837891 0)"/>
       <use xlink:href="#ArialMT-74" transform="translate(833.837891 0)"/>
       <use xlink:href="#ArialMT-65" transform="translate(861.621094 0)"/>
       <use xlink:href="#ArialMT-6e" transform="translate(917.236328 0)"/>
       <use xlink:href="#ArialMT-63" transform="translate(972.851562 0)"/>
       <use xlink:href="#ArialMT-79" transform="translate(1022.851562 0)"/>
      </g>
     </g>
    </g>
    <g id="xtick_4">
     <g id="line2d_4">
      <path d="M 504 346.085 
L 621.099217 63.382482 
" clip-path="url(#pb784b99981)" style="fill: none; stroke: #ffffff; stroke-linecap: round"/>
     </g>
     <g id="text_4">
      <!-- color -->
      <g style="fill: #262626" transform="translate(612.179502 47.193383) scale(0.16 -0.16)">
       <use xlink:href="#ArialMT-63"/>
       <use xlink:href="#ArialMT-6f" transform="translate(50 0)"/>
       <use xlink:href="#ArialMT-6c" transform="translate(105.615234 0)"/>
       <use xlink:href="#ArialMT-6f" transform="translate(127.832031 0)"/>
       <use xlink:href="#ArialMT-72" transform="translate(183.447266 0)"/>
      </g>
     </g>
    </g>
    <g id="xtick_5">
     <g id="line2d_5">
      <path d="M 504 346.085 
L 504 40.09 
" clip-path="url(#pb784b99981)" style="fill: none; stroke: #ffffff; stroke-linecap: round"/>
     </g>
     <g id="text_5">
      <!-- dynamic degree -->
      <g style="fill: #262626" transform="translate(447.0825 22.1325) scale(0.16 -0.16)">
       <defs>
        <path id="ArialMT-6d" d="M 422 0 
L 422 3319 
L 925 3319 
L 925 2853 
Q 1081 3097 1340 3245 
Q 1600 3394 1931 3394 
Q 2300 3394 2536 3241 
Q 2772 3088 2869 2813 
Q 3263 3394 3894 3394 
Q 4388 3394 4653 3120 
Q 4919 2847 4919 2278 
L 4919 0 
L 4359 0 
L 4359 2091 
Q 4359 2428 4304 2576 
Q 4250 2725 4106 2815 
Q 3963 2906 3769 2906 
Q 3419 2906 3187 2673 
Q 2956 2441 2956 1928 
L 2956 0 
L 2394 0 
L 2394 2156 
Q 2394 2531 2256 2718 
Q 2119 2906 1806 2906 
Q 1569 2906 1367 2781 
Q 1166 2656 1075 2415 
Q 984 2175 984 1722 
L 984 0 
L 422 0 
z
" transform="scale(0.015625)"/>
       </defs>
       <use xlink:href="#ArialMT-64"/>
       <use xlink:href="#ArialMT-79" transform="translate(55.615234 0)"/>
       <use xlink:href="#ArialMT-6e" transform="translate(105.615234 0)"/>
       <use xlink:href="#ArialMT-61" transform="translate(161.230469 0)"/>
       <use xlink:href="#ArialMT-6d" transform="translate(216.845703 0)"/>
       <use xlink:href="#ArialMT-69" transform="translate(300.146484 0)"/>
       <use xlink:href="#ArialMT-63" transform="translate(322.363281 0)"/>
       <use xlink:href="#ArialMT-20" transform="translate(372.363281 0)"/>
       <use xlink:href="#ArialMT-64" transform="translate(400.146484 0)"/>
       <use xlink:href="#ArialMT-65" transform="translate(455.761719 0)"/>
       <use xlink:href="#ArialMT-67" transform="translate(511.376953 0)"/>
       <use xlink:href="#ArialMT-72" transform="translate(566.992188 0)"/>
       <use xlink:href="#ArialMT-65" transform="translate(600.292969 0)"/>
       <use xlink:href="#ArialMT-65" transform="translate(655.908203 0)"/>
      </g>
     </g>
    </g>
    <g id="xtick_6">
     <g id="line2d_6">
      <path d="M 504 346.085 
L 386.900783 63.382482 
" clip-path="url(#pb784b99981)" style="fill: none; stroke: #ffffff; stroke-linecap: round"/>
     </g>
     <g id="text_6">
      <!-- human action -->
      <g style="fill: #262626" transform="translate(330.454248 47.193383) scale(0.16 -0.16)">
       <use xlink:href="#ArialMT-68"/>
       <use xlink:href="#ArialMT-75" transform="translate(55.615234 0)"/>
       <use xlink:href="#ArialMT-6d" transform="translate(111.230469 0)"/>
       <use xlink:href="#ArialMT-61" transform="translate(194.53125 0)"/>
       <use xlink:href="#ArialMT-6e" transform="translate(250.146484 0)"/>
       <use xlink:href="#ArialMT-20" transform="translate(305.761719 0)"/>
       <use xlink:href="#ArialMT-61" transform="translate(333.544922 0)"/>
       <use xlink:href="#ArialMT-63" transform="translate(389.160156 0)"/>
       <use xlink:href="#ArialMT-74" transform="translate(439.160156 0)"/>
       <use xlink:href="#ArialMT-69" transform="translate(466.943359 0)"/>
       <use xlink:href="#ArialMT-6f" transform="translate(489.160156 0)"/>
       <use xlink:href="#ArialMT-6e" transform="translate(544.775391 0)"/>
      </g>
     </g>
    </g>
    <g id="xtick_7">
     <g id="line2d_7">
      <path d="M 504 346.085 
L 287.62886 129.71386 
" clip-path="url(#pb784b99981)" style="fill: none; stroke: #ffffff; stroke-linecap: round"/>
     </g>
     <g id="text_7">
      <!-- imaging quality -->
      <g style="fill: #262626" transform="translate(218.712511 118.200011) scale(0.16 -0.16)">
       <use xlink:href="#ArialMT-69"/>
       <use xlink:href="#ArialMT-6d" transform="translate(22.216797 0)"/>
       <use xlink:href="#ArialMT-61" transform="translate(105.517578 0)"/>
       <use xlink:href="#ArialMT-67" transform="translate(161.132812 0)"/>
       <use xlink:href="#ArialMT-69" transform="translate(216.748047 0)"/>
       <use xlink:href="#ArialMT-6e" transform="translate(238.964844 0)"/>
       <use xlink:href="#ArialMT-67" transform="translate(294.580078 0)"/>
       <use xlink:href="#ArialMT-20" transform="translate(350.195312 0)"/>
       <use xlink:href="#ArialMT-71" transform="translate(377.978516 0)"/>
       <use xlink:href="#ArialMT-75" transform="translate(433.59375 0)"/>
       <use xlink:href="#ArialMT-61" transform="translate(489.208984 0)"/>
       <use xlink:href="#ArialMT-6c" transform="translate(544.824219 0)"/>
       <use xlink:href="#ArialMT-69" transform="translate(567.041016 0)"/>
       <use xlink:href="#ArialMT-74" transform="translate(589.257812 0)"/>
       <use xlink:href="#ArialMT-79" transform="translate(617.041016 0)"/>
      </g>
     </g>
    </g>
    <g id="xtick_8">
     <g id="line2d_8">
      <path d="M 504 346.085 
L 221.297482 228.985783 
" clip-path="url(#pb784b99981)" style="fill: none; stroke: #ffffff; stroke-linecap: round"/>
     </g>
     <g id="text_8">
      <!-- motion smoothness -->
      <g style="fill: #262626" transform="translate(131.609633 224.702998) scale(0.16 -0.16)">
       <use xlink:href="#ArialMT-6d"/>
       <use xlink:href="#ArialMT-6f" transform="translate(83.300781 0)"/>
       <use xlink:href="#ArialMT-74" transform="translate(138.916016 0)"/>
       <use xlink:href="#ArialMT-69" transform="translate(166.699219 0)"/>
       <use xlink:href="#ArialMT-6f" transform="translate(188.916016 0)"/>
       <use xlink:href="#ArialMT-6e" transform="translate(244.53125 0)"/>
       <use xlink:href="#ArialMT-20" transform="translate(300.146484 0)"/>
       <use xlink:href="#ArialMT-73" transform="translate(327.929688 0)"/>
       <use xlink:href="#ArialMT-6d" transform="translate(377.929688 0)"/>
       <use xlink:href="#ArialMT-6f" transform="translate(461.230469 0)"/>
       <use xlink:href="#ArialMT-6f" transform="translate(516.845703 0)"/>
       <use xlink:href="#ArialMT-74" transform="translate(572.460938 0)"/>
       <use xlink:href="#ArialMT-68" transform="translate(600.244141 0)"/>
       <use xlink:href="#ArialMT-6e" transform="translate(655.859375 0)"/>
       <use xlink:href="#ArialMT-65" transform="translate(711.474609 0)"/>
       <use xlink:href="#ArialMT-73" transform="translate(767.089844 0)"/>
       <use xlink:href="#ArialMT-73" transform="translate(817.089844 0)"/>
      </g>
     </g>
    </g>
    <g id="xtick_9">
     <g id="line2d_9">
      <path d="M 504 346.085 
L 198.005 346.085 
" clip-path="url(#pb784b99981)" style="fill: none; stroke: #ffffff; stroke-linecap: round"/>
     </g>
     <g id="text_9">
      <!-- multiple objects -->
      <g style="fill: #262626" transform="translate(120.87125 350.1275) scale(0.16 -0.16)">
       <defs>
        <path id="ArialMT-6a" d="M 419 3928 
L 419 4581 
L 981 4581 
L 981 3928 
L 419 3928 
z
M -294 -1288 
L -188 -809 
Q -19 -853 78 -853 
Q 250 -853 334 -739 
Q 419 -625 419 -169 
L 419 3319 
L 981 3319 
L 981 -181 
Q 981 -794 822 -1034 
Q 619 -1347 147 -1347 
Q -81 -1347 -294 -1288 
z
" transform="scale(0.015625)"/>
       </defs>
       <use xlink:href="#ArialMT-6d"/>
       <use xlink:href="#ArialMT-75" transform="translate(83.300781 0)"/>
       <use xlink:href="#ArialMT-6c" transform="translate(138.916016 0)"/>
       <use xlink:href="#ArialMT-74" transform="translate(161.132812 0)"/>
       <use xlink:href="#ArialMT-69" transform="translate(188.916016 0)"/>
       <use xlink:href="#ArialMT-70" transform="translate(211.132812 0)"/>
       <use xlink:href="#ArialMT-6c" transform="translate(266.748047 0)"/>
       <use xlink:href="#ArialMT-65" transform="translate(288.964844 0)"/>
       <use xlink:href="#ArialMT-20" transform="translate(344.580078 0)"/>
       <use xlink:href="#ArialMT-6f" transform="translate(372.363281 0)"/>
       <use xlink:href="#ArialMT-62" transform="translate(427.978516 0)"/>
       <use xlink:href="#ArialMT-6a" transform="translate(483.59375 0)"/>
       <use xlink:href="#ArialMT-65" transform="translate(505.810547 0)"/>
       <use xlink:href="#ArialMT-63" transform="translate(561.425781 0)"/>
       <use xlink:href="#ArialMT-74" transform="translate(611.425781 0)"/>
       <use xlink:href="#ArialMT-73" transform="translate(639.208984 0)"/>
      </g>
     </g>
    </g>
    <g id="xtick_10">
     <g id="line2d_10">
      <path d="M 504 346.085 
L 221.297482 463.184217 
" clip-path="url(#pb784b99981)" style="fill: none; stroke: #ffffff; stroke-linecap: round"/>
     </g>
     <g id="text_10">
      <!-- object class -->
      <g style="fill: #262626" transform="translate(159.177133 475.645752) scale(0.16 -0.16)">
       <use xlink:href="#ArialMT-6f"/>
       <use xlink:href="#ArialMT-62" transform="translate(55.615234 0)"/>
       <use xlink:href="#ArialMT-6a" transform="translate(111.230469 0)"/>
       <use xlink:href="#ArialMT-65" transform="translate(133.447266 0)"/>
       <use xlink:href="#ArialMT-63" transform="translate(189.0625 0)"/>
       <use xlink:href="#ArialMT-74" transform="translate(239.0625 0)"/>
       <use xlink:href="#ArialMT-20" transform="translate(266.845703 0)"/>
       <use xlink:href="#ArialMT-63" transform="translate(294.628906 0)"/>
       <use xlink:href="#ArialMT-6c" transform="translate(344.628906 0)"/>
       <use xlink:href="#ArialMT-61" transform="translate(366.845703 0)"/>
       <use xlink:href="#ArialMT-73" transform="translate(422.460938 0)"/>
       <use xlink:href="#ArialMT-73" transform="translate(472.460938 0)"/>
      </g>
     </g>
    </g>
    <g id="xtick_11">
     <g id="line2d_11">
      <path d="M 504 346.085 
L 287.62886 562.45614 
" clip-path="url(#pb784b99981)" style="fill: none; stroke: #ffffff; stroke-linecap: round"/>
     </g>
     <g id="text_11">
      <!-- overall consistency -->
      <g style="fill: #262626" transform="translate(204.490011 582.054989) scale(0.16 -0.16)">
       <defs>
        <path id="ArialMT-76" d="M 1344 0 
L 81 3319 
L 675 3319 
L 1388 1331 
Q 1503 1009 1600 663 
Q 1675 925 1809 1294 
L 2547 3319 
L 3125 3319 
L 1869 0 
L 1344 0 
z
" transform="scale(0.015625)"/>
       </defs>
       <use xlink:href="#ArialMT-6f"/>
       <use xlink:href="#ArialMT-76" transform="translate(55.615234 0)"/>
       <use xlink:href="#ArialMT-65" transform="translate(105.615234 0)"/>
       <use xlink:href="#ArialMT-72" transform="translate(161.230469 0)"/>
       <use xlink:href="#ArialMT-61" transform="translate(194.53125 0)"/>
       <use xlink:href="#ArialMT-6c" transform="translate(250.146484 0)"/>
       <use xlink:href="#ArialMT-6c" transform="translate(272.363281 0)"/>
       <use xlink:href="#ArialMT-20" transform="translate(294.580078 0)"/>
       <use xlink:href="#ArialMT-63" transform="translate(322.363281 0)"/>
       <use xlink:href="#ArialMT-6f" transform="translate(372.363281 0)"/>
       <use xlink:href="#ArialMT-6e" transform="translate(427.978516 0)"/>
       <use xlink:href="#ArialMT-73" transform="translate(483.59375 0)"/>
       <use xlink:href="#ArialMT-69" transform="translate(533.59375 0)"/>
       <use xlink:href="#ArialMT-73" transform="translate(555.810547 0)"/>
       <use xlink:href="#ArialMT-74" transform="translate(605.810547 0)"/>
       <use xlink:href="#ArialMT-65" transform="translate(633.59375 0)"/>
       <use xlink:href="#ArialMT-6e" transform="translate(689.208984 0)"/>
       <use xlink:href="#ArialMT-63" transform="translate(744.824219 0)"/>
       <use xlink:href="#ArialMT-79" transform="translate(794.824219 0)"/>
      </g>
     </g>
    </g>
    <g id="xtick_12">
     <g id="line2d_12">
      <path d="M 504 346.085 
L 386.900783 628.787518 
" clip-path="url(#pb784b99981)" style="fill: none; stroke: #ffffff; stroke-linecap: round"/>
     </g>
     <g id="text_12">
      <!-- scene -->
      <g style="fill: #262626" transform="translate(357.135498 653.249117) scale(0.16 -0.16)">
       <use xlink:href="#ArialMT-73"/>
       <use xlink:href="#ArialMT-63" transform="translate(50 0)"/>
       <use xlink:href="#ArialMT-65" transform="translate(100 0)"/>
       <use xlink:href="#ArialMT-6e" transform="translate(155.615234 0)"/>
       <use xlink:href="#ArialMT-65" transform="translate(211.230469 0)"/>
      </g>
     </g>
    </g>
    <g id="xtick_13">
     <g id="line2d_13">
      <path d="M 504 346.085 
L 504 652.08 
" clip-path="url(#pb784b99981)" style="fill: none; stroke: #ffffff; stroke-linecap: round"/>
     </g>
     <g id="text_13">
      <!-- spatial relationship -->
      <g style="fill: #262626" transform="translate(437.7425 678.21625) scale(0.16 -0.16)">
       <use xlink:href="#ArialMT-73"/>
       <use xlink:href="#ArialMT-70" transform="translate(50 0)"/>
       <use xlink:href="#ArialMT-61" transform="translate(105.615234 0)"/>
       <use xlink:href="#ArialMT-74" transform="translate(161.230469 0)"/>
       <use xlink:href="#ArialMT-69" transform="translate(189.013672 0)"/>
       <use xlink:href="#ArialMT-61" transform="translate(211.230469 0)"/>
       <use xlink:href="#ArialMT-6c" transform="translate(266.845703 0)"/>
       <use xlink:href="#ArialMT-20" transform="translate(289.0625 0)"/>
       <use xlink:href="#ArialMT-72" transform="translate(316.845703 0)"/>
       <use xlink:href="#ArialMT-65" transform="translate(350.146484 0)"/>
       <use xlink:href="#ArialMT-6c" transform="translate(405.761719 0)"/>
       <use xlink:href="#ArialMT-61" transform="translate(427.978516 0)"/>
       <use xlink:href="#ArialMT-74" transform="translate(483.59375 0)"/>
       <use xlink:href="#ArialMT-69" transform="translate(511.376953 0)"/>
       <use xlink:href="#ArialMT-6f" transform="translate(533.59375 0)"/>
       <use xlink:href="#ArialMT-6e" transform="translate(589.208984 0)"/>
       <use xlink:href="#ArialMT-73" transform="translate(644.824219 0)"/>
       <use xlink:href="#ArialMT-68" transform="translate(694.824219 0)"/>
       <use xlink:href="#ArialMT-69" transform="translate(750.439453 0)"/>
       <use xlink:href="#ArialMT-70" transform="translate(772.65625 0)"/>
      </g>
     </g>
    </g>
    <g id="xtick_14">
     <g id="line2d_14">
      <path d="M 504 346.085 
L 621.099217 628.787518 
" clip-path="url(#pb784b99981)" style="fill: none; stroke: #ffffff; stroke-linecap: round"/>
     </g>
     <g id="text_14">
      <!-- subject consistency -->
      <g style="fill: #262626" transform="translate(560.154502 653.155367) scale(0.16 -0.16)">
       <use xlink:href="#ArialMT-73"/>
       <use xlink:href="#ArialMT-75" transform="translate(50 0)"/>
       <use xlink:href="#ArialMT-62" transform="translate(105.615234 0)"/>
       <use xlink:href="#ArialMT-6a" transform="translate(161.230469 0)"/>
       <use xlink:href="#ArialMT-65" transform="translate(183.447266 0)"/>
       <use xlink:href="#ArialMT-63" transform="translate(239.0625 0)"/>
       <use xlink:href="#ArialMT-74" transform="translate(289.0625 0)"/>
       <use xlink:href="#ArialMT-20" transform="translate(316.845703 0)"/>
       <use xlink:href="#ArialMT-63" transform="translate(344.628906 0)"/>
       <use xlink:href="#ArialMT-6f" transform="translate(394.628906 0)"/>
       <use xlink:href="#ArialMT-6e" transform="translate(450.244141 0)"/>
       <use xlink:href="#ArialMT-73" transform="translate(505.859375 0)"/>
       <use xlink:href="#ArialMT-69" transform="translate(555.859375 0)"/>
       <use xlink:href="#ArialMT-73" transform="translate(578.076172 0)"/>
       <use xlink:href="#ArialMT-74" transform="translate(628.076172 0)"/>
       <use xlink:href="#ArialMT-65" transform="translate(655.859375 0)"/>
       <use xlink:href="#ArialMT-6e" transform="translate(711.474609 0)"/>
       <use xlink:href="#ArialMT-63" transform="translate(767.089844 0)"/>
       <use xlink:href="#ArialMT-79" transform="translate(817.089844 0)"/>
      </g>
     </g>
    </g>
    <g id="xtick_15">
     <g id="line2d_15">
      <path d="M 504 346.085 
L 720.37114 562.45614 
" clip-path="url(#pb784b99981)" style="fill: none; stroke: #ffffff; stroke-linecap: round"/>
     </g>
     <g id="text_15">
      <!-- temporal flickering -->
      <g style="fill: #262626" transform="translate(671.017489 582.152489) scale(0.16 -0.16)">
       <defs>
        <path id="ArialMT-66" d="M 556 0 
L 556 2881 
L 59 2881 
L 59 3319 
L 556 3319 
L 556 3672 
Q 556 4006 616 4169 
Q 697 4388 901 4523 
Q 1106 4659 1475 4659 
Q 1713 4659 2000 4603 
L 1916 4113 
Q 1741 4144 1584 4144 
Q 1328 4144 1222 4034 
Q 1116 3925 1116 3625 
L 1116 3319 
L 1763 3319 
L 1763 2881 
L 1116 2881 
L 1116 0 
L 556 0 
z
" transform="scale(0.015625)"/>
       </defs>
       <use xlink:href="#ArialMT-74"/>
       <use xlink:href="#ArialMT-65" transform="translate(27.783203 0)"/>
       <use xlink:href="#ArialMT-6d" transform="translate(83.398438 0)"/>
       <use xlink:href="#ArialMT-70" transform="translate(166.699219 0)"/>
       <use xlink:href="#ArialMT-6f" transform="translate(222.314453 0)"/>
       <use xlink:href="#ArialMT-72" transform="translate(277.929688 0)"/>
       <use xlink:href="#ArialMT-61" transform="translate(311.230469 0)"/>
       <use xlink:href="#ArialMT-6c" transform="translate(366.845703 0)"/>
       <use xlink:href="#ArialMT-20" transform="translate(389.0625 0)"/>
       <use xlink:href="#ArialMT-66" transform="translate(416.845703 0)"/>
       <use xlink:href="#ArialMT-6c" transform="translate(444.628906 0)"/>
       <use xlink:href="#ArialMT-69" transform="translate(466.845703 0)"/>
       <use xlink:href="#ArialMT-63" transform="translate(489.0625 0)"/>
       <use xlink:href="#ArialMT-6b" transform="translate(539.0625 0)"/>
       <use xlink:href="#ArialMT-65" transform="translate(589.0625 0)"/>
       <use xlink:href="#ArialMT-72" transform="translate(644.677734 0)"/>
       <use xlink:href="#ArialMT-69" transform="translate(677.978516 0)"/>
       <use xlink:href="#ArialMT-6e" transform="translate(700.195312 0)"/>
       <use xlink:href="#ArialMT-67" transform="translate(755.810547 0)"/>
      </g>
     </g>
    </g>
    <g id="xtick_16">
     <g id="line2d_16">
      <path d="M 504 346.085 
L 786.702518 463.184217 
" clip-path="url(#pb784b99981)" style="fill: none; stroke: #ffffff; stroke-linecap: round"/>
     </g>
     <g id="text_16">
      <!-- temporal style -->
      <g style="fill: #262626" transform="translate(757.234117 475.645752) scale(0.16 -0.16)">
       <use xlink:href="#ArialMT-74"/>
       <use xlink:href="#ArialMT-65" transform="translate(27.783203 0)"/>
       <use xlink:href="#ArialMT-6d" transform="translate(83.398438 0)"/>
       <use xlink:href="#ArialMT-70" transform="translate(166.699219 0)"/>
       <use xlink:href="#ArialMT-6f" transform="translate(222.314453 0)"/>
       <use xlink:href="#ArialMT-72" transform="translate(277.929688 0)"/>
       <use xlink:href="#ArialMT-61" transform="translate(311.230469 0)"/>
       <use xlink:href="#ArialMT-6c" transform="translate(366.845703 0)"/>
       <use xlink:href="#ArialMT-20" transform="translate(389.0625 0)"/>
       <use xlink:href="#ArialMT-73" transform="translate(416.845703 0)"/>
       <use xlink:href="#ArialMT-74" transform="translate(466.845703 0)"/>
       <use xlink:href="#ArialMT-79" transform="translate(494.628906 0)"/>
       <use xlink:href="#ArialMT-6c" transform="translate(544.628906 0)"/>
       <use xlink:href="#ArialMT-65" transform="translate(566.845703 0)"/>
      </g>
     </g>
    </g>
   </g>
   <g id="matplotlib.axis_2">
    <g id="ytick_1">
     <g id="line2d_17">
      <path d="M 562.284762 346.085 
C 562.284762 338.431115 560.777113 330.851655 557.848099 323.780387 
C 554.919084 316.70912 550.625664 310.283563 545.21355 304.87145 
C 539.801437 299.459336 533.37588 295.165916 526.304613 292.236901 
C 519.233345 289.307887 511.653885 287.800238 504 287.800238 
C 496.346115 287.800238 488.766655 289.307887 481.695387 292.236901 
C 474.62412 295.165916 468.198563 299.459336 462.78645 304.87145 
C 457.374336 310.283563 453.080916 316.70912 450.151901 323.780387 
C 447.222887 330.851655 445.715238 338.431115 445.715238 346.085 
C 445.715238 353.738885 447.222887 361.318345 450.151901 368.389613 
C 453.080916 375.46088 457.374336 381.886437 462.78645 387.29855 
C 468.198563 392.710664 474.62412 397.004084 481.695387 399.933099 
C 488.766655 402.862113 496.346115 404.369762 504 404.369762 
C 511.653885 404.369762 519.233345 402.862113 526.304613 399.933099 
C 533.37588 397.004084 539.801437 392.710664 545.21355 387.29855 
C 550.625664 381.886437 554.919084 375.46088 557.848099 368.389613 
C 560.777113 361.318345 562.284762 353.738885 562.284762 346.085 
" clip-path="url(#pb784b99981)" style="fill: none; stroke: #ffffff; stroke-linecap: round"/>
     </g>
     <g id="text_17">
      <!-- 0.2 -->
      <g style="fill: #262626" transform="translate(557.848099 321.792887) scale(0.1 -0.1)">
       <defs>
        <path id="ArialMT-30" d="M 266 2259 
Q 266 3072 433 3567 
Q 600 4063 929 4331 
Q 1259 4600 1759 4600 
Q 2128 4600 2406 4451 
Q 2684 4303 2865 4023 
Q 3047 3744 3150 3342 
Q 3253 2941 3253 2259 
Q 3253 1453 3087 958 
Q 2922 463 2592 192 
Q 2263 -78 1759 -78 
Q 1097 -78 719 397 
Q 266 969 266 2259 
z
M 844 2259 
Q 844 1131 1108 757 
Q 1372 384 1759 384 
Q 2147 384 2411 759 
Q 2675 1134 2675 2259 
Q 2675 3391 2411 3762 
Q 2147 4134 1753 4134 
Q 1366 4134 1134 3806 
Q 844 3388 844 2259 
z
" transform="scale(0.015625)"/>
        <path id="ArialMT-2e" d="M 581 0 
L 581 641 
L 1222 641 
L 1222 0 
L 581 0 
z
" transform="scale(0.015625)"/>
        <path id="ArialMT-32" d="M 3222 541 
L 3222 0 
L 194 0 
Q 188 203 259 391 
Q 375 700 629 1000 
Q 884 1300 1366 1694 
Q 2113 2306 2375 2664 
Q 2638 3022 2638 3341 
Q 2638 3675 2398 3904 
Q 2159 4134 1775 4134 
Q 1369 4134 1125 3890 
Q 881 3647 878 3216 
L 300 3275 
Q 359 3922 746 4261 
Q 1134 4600 1788 4600 
Q 2447 4600 2831 4234 
Q 3216 3869 3216 3328 
Q 3216 3053 3103 2787 
Q 2991 2522 2730 2228 
Q 2469 1934 1863 1422 
Q 1356 997 1212 845 
Q 1069 694 975 541 
L 3222 541 
z
" transform="scale(0.015625)"/>
       </defs>
       <use xlink:href="#ArialMT-30"/>
       <use xlink:href="#ArialMT-2e" transform="translate(55.615234 0)"/>
       <use xlink:href="#ArialMT-32" transform="translate(83.398438 0)"/>
      </g>
     </g>
    </g>
    <g id="ytick_2">
     <g id="line2d_18">
      <path d="M 620.569524 346.085 
C 620.569524 330.77723 617.554227 315.61831 611.696197 301.475775 
C 605.838167 287.333239 597.251328 274.482127 586.427101 263.657899 
C 575.602873 252.833672 562.751761 244.246833 548.609225 238.388803 
C 534.46669 232.530773 519.30777 229.515476 504 229.515476 
C 488.69223 229.515476 473.53331 232.530773 459.390775 238.388803 
C 445.248239 244.246833 432.397127 252.833672 421.572899 263.657899 
C 410.748672 274.482127 402.161833 287.333239 396.303803 301.475775 
C 390.445773 315.61831 387.430476 330.77723 387.430476 346.085 
C 387.430476 361.39277 390.445773 376.55169 396.303803 390.694225 
C 402.161833 404.836761 410.748672 417.687873 421.572899 428.512101 
C 432.397127 439.336328 445.248239 447.923167 459.390775 453.781197 
C 473.53331 459.639227 488.69223 462.654524 504 462.654524 
C 519.30777 462.654524 534.46669 459.639227 548.609225 453.781197 
C 562.751761 447.923167 575.602873 439.336328 586.427101 428.512101 
C 597.251328 417.687873 605.838167 404.836761 611.696197 390.694225 
C 617.554227 376.55169 620.569524 361.39277 620.569524 346.085 
" clip-path="url(#pb784b99981)" style="fill: none; stroke: #ffffff; stroke-linecap: round"/>
     </g>
     <g id="text_18">
      <!-- 0.4 -->
      <g style="fill: #262626" transform="translate(611.696197 299.488275) scale(0.1 -0.1)">
       <defs>
        <path id="ArialMT-34" d="M 2069 0 
L 2069 1097 
L 81 1097 
L 81 1613 
L 2172 4581 
L 2631 4581 
L 2631 1613 
L 3250 1613 
L 3250 1097 
L 2631 1097 
L 2631 0 
L 2069 0 
z
M 2069 1613 
L 2069 3678 
L 634 1613 
L 2069 1613 
z
" transform="scale(0.015625)"/>
       </defs>
       <use xlink:href="#ArialMT-30"/>
       <use xlink:href="#ArialMT-2e" transform="translate(55.615234 0)"/>
       <use xlink:href="#ArialMT-34" transform="translate(83.398438 0)"/>
      </g>
     </g>
    </g>
    <g id="ytick_3">
     <g id="line2d_19">
      <path d="M 678.854286 346.085 
C 678.854286 323.123346 674.33134 300.384964 665.544296 279.171162 
C 656.757251 257.957359 643.876993 238.68069 627.640651 222.444349 
C 611.40431 206.208007 592.127641 193.327749 570.913838 184.540704 
C 549.700036 175.75366 526.961654 171.230714 504 171.230714 
C 481.038346 171.230714 458.299964 175.75366 437.086162 184.540704 
C 415.872359 193.327749 396.59569 206.208007 380.359349 222.444349 
C 364.123007 238.68069 351.242749 257.957359 342.455704 279.171162 
C 333.66866 300.384964 329.145714 323.123346 329.145714 346.085 
C 329.145714 369.046654 333.66866 391.785036 342.455704 412.998838 
C 351.242749 434.212641 364.123007 453.48931 380.359349 469.725651 
C 396.59569 485.961993 415.872359 498.842251 437.086162 507.629296 
C 458.299964 516.41634 481.038346 520.939286 504 520.939286 
C 526.961654 520.939286 549.700036 516.41634 570.913838 507.629296 
C 592.127641 498.842251 611.40431 485.961993 627.640651 469.725651 
C 643.876993 453.48931 656.757251 434.212641 665.544296 412.998838 
C 674.33134 391.785036 678.854286 369.046654 678.854286 346.085 
" clip-path="url(#pb784b99981)" style="fill: none; stroke: #ffffff; stroke-linecap: round"/>
     </g>
     <g id="text_19">
      <!-- 0.6 -->
      <g style="fill: #262626" transform="translate(665.544296 277.183662) scale(0.1 -0.1)">
       <defs>
        <path id="ArialMT-36" d="M 3184 3459 
L 2625 3416 
Q 2550 3747 2413 3897 
Q 2184 4138 1850 4138 
Q 1581 4138 1378 3988 
Q 1113 3794 959 3422 
Q 806 3050 800 2363 
Q 1003 2672 1297 2822 
Q 1591 2972 1913 2972 
Q 2475 2972 2870 2558 
Q 3266 2144 3266 1488 
Q 3266 1056 3080 686 
Q 2894 316 2569 119 
Q 2244 -78 1831 -78 
Q 1128 -78 684 439 
Q 241 956 241 2144 
Q 241 3472 731 4075 
Q 1159 4600 1884 4600 
Q 2425 4600 2770 4297 
Q 3116 3994 3184 3459 
z
M 888 1484 
Q 888 1194 1011 928 
Q 1134 663 1356 523 
Q 1578 384 1822 384 
Q 2178 384 2434 671 
Q 2691 959 2691 1453 
Q 2691 1928 2437 2201 
Q 2184 2475 1800 2475 
Q 1419 2475 1153 2201 
Q 888 1928 888 1484 
z
" transform="scale(0.015625)"/>
       </defs>
       <use xlink:href="#ArialMT-30"/>
       <use xlink:href="#ArialMT-2e" transform="translate(55.615234 0)"/>
       <use xlink:href="#ArialMT-36" transform="translate(83.398438 0)"/>
      </g>
     </g>
    </g>
    <g id="ytick_4">
     <g id="line2d_20">
      <path d="M 737.139048 346.085 
C 737.139048 315.469461 731.108454 285.151619 719.392394 256.866549 
C 707.676335 228.581479 690.502657 202.879254 668.854202 181.230798 
C 647.205746 159.582343 621.503521 142.408665 593.218451 130.692606 
C 564.933381 118.976546 534.615539 112.945952 504 112.945952 
C 473.384461 112.945952 443.066619 118.976546 414.781549 130.692606 
C 386.496479 142.408665 360.794254 159.582343 339.145798 181.230798 
C 317.497343 202.879254 300.323665 228.581479 288.607606 256.866549 
C 276.891546 285.151619 270.860952 315.469461 270.860952 346.085 
C 270.860952 376.700539 276.891546 407.018381 288.607606 435.303451 
C 300.323665 463.588521 317.497343 489.290746 339.145798 510.939202 
C 360.794254 532.587657 386.496479 549.761335 414.781549 561.477394 
C 443.066619 573.193454 473.384461 579.224048 504 579.224048 
C 534.615539 579.224048 564.933381 573.193454 593.218451 561.477394 
C 621.503521 549.761335 647.205746 532.587657 668.854202 510.939202 
C 690.502657 489.290746 707.676335 463.588521 719.392394 435.303451 
C 731.108454 407.018381 737.139048 376.700539 737.139048 346.085 
" clip-path="url(#pb784b99981)" style="fill: none; stroke: #ffffff; stroke-linecap: round"/>
     </g>
     <g id="text_20">
      <!-- 0.8 -->
      <g style="fill: #262626" transform="translate(719.392394 254.879049) scale(0.1 -0.1)">
       <defs>
        <path id="ArialMT-38" d="M 1131 2484 
Q 781 2613 612 2850 
Q 444 3088 444 3419 
Q 444 3919 803 4259 
Q 1163 4600 1759 4600 
Q 2359 4600 2725 4251 
Q 3091 3903 3091 3403 
Q 3091 3084 2923 2848 
Q 2756 2613 2416 2484 
Q 2838 2347 3058 2040 
Q 3278 1734 3278 1309 
Q 3278 722 2862 322 
Q 2447 -78 1769 -78 
Q 1091 -78 675 323 
Q 259 725 259 1325 
Q 259 1772 486 2073 
Q 713 2375 1131 2484 
z
M 1019 3438 
Q 1019 3113 1228 2906 
Q 1438 2700 1772 2700 
Q 2097 2700 2305 2904 
Q 2513 3109 2513 3406 
Q 2513 3716 2298 3927 
Q 2084 4138 1766 4138 
Q 1444 4138 1231 3931 
Q 1019 3725 1019 3438 
z
M 838 1322 
Q 838 1081 952 856 
Q 1066 631 1291 507 
Q 1516 384 1775 384 
Q 2178 384 2440 643 
Q 2703 903 2703 1303 
Q 2703 1709 2433 1975 
Q 2163 2241 1756 2241 
Q 1359 2241 1098 1978 
Q 838 1716 838 1322 
z
" transform="scale(0.015625)"/>
       </defs>
       <use xlink:href="#ArialMT-30"/>
       <use xlink:href="#ArialMT-2e" transform="translate(55.615234 0)"/>
       <use xlink:href="#ArialMT-38" transform="translate(83.398438 0)"/>
      </g>
     </g>
    </g>
    <g id="ytick_5">
     <g id="line2d_21">
      <path d="M 795.42381 346.085 
C 795.42381 307.815576 787.885567 269.918274 773.240493 234.561936 
C 758.595418 199.205599 737.128321 167.077817 710.067752 140.017248 
C 683.007183 112.956679 650.879401 91.489582 615.523064 76.844507 
C 580.166726 62.199433 542.269424 54.66119 504 54.66119 
C 465.730576 54.66119 427.833274 62.199433 392.476936 76.844507 
C 357.120599 91.489582 324.992817 112.956679 297.932248 140.017248 
C 270.871679 167.077817 249.404582 199.205599 234.759507 234.561936 
C 220.114433 269.918274 212.57619 307.815576 212.57619 346.085 
C 212.57619 384.354424 220.114433 422.251726 234.759507 457.608064 
C 249.404582 492.964401 270.871679 525.092183 297.932248 552.152752 
C 324.992817 579.213321 357.120599 600.680418 392.476936 615.325493 
C 427.833274 629.970567 465.730576 637.50881 504 637.50881 
C 542.269424 637.50881 580.166726 629.970567 615.523064 615.325493 
C 650.879401 600.680418 683.007183 579.213321 710.067752 552.152752 
C 737.128321 525.092183 758.595418 492.964401 773.240493 457.608064 
C 787.885567 422.251726 795.42381 384.354424 795.42381 346.085 
" clip-path="url(#pb784b99981)" style="fill: none; stroke: #ffffff; stroke-linecap: round"/>
     </g>
     <g id="text_21">
      <!-- 1.0 -->
      <g style="fill: #262626" transform="translate(773.240493 232.574436) scale(0.1 -0.1)">
       <defs>
        <path id="ArialMT-31" d="M 2384 0 
L 1822 0 
L 1822 3584 
Q 1619 3391 1289 3197 
Q 959 3003 697 2906 
L 697 3450 
Q 1169 3672 1522 3987 
Q 1875 4303 2022 4600 
L 2384 4600 
L 2384 0 
z
" transform="scale(0.015625)"/>
       </defs>
       <use xlink:href="#ArialMT-31"/>
       <use xlink:href="#ArialMT-2e" transform="translate(55.615234 0)"/>
       <use xlink:href="#ArialMT-30" transform="translate(83.398438 0)"/>
      </g>
     </g>
    </g>
   </g>
   <g id="patch_3">
    <path d="M 795.42381 346.085 
L 773.240493 234.561936 
L 710.067752 140.017248 
L 610.572954 88.795129 
L 504 54.66119 
L 427.527042 161.462948 
L 397.135868 239.220868 
L 486.629646 338.889964 
L 212.57619 346.085 
L 234.759507 457.608064 
L 322.722354 527.362646 
L 448.683137 479.63172 
L 504 581.453519 
L 504 346.085 
L 707.425858 549.510858 
L 715.988204 433.893389 
z
" clip-path="url(#pb784b99981)" style="fill: #ff6b6b; opacity: 0.25; stroke: #ff6b6b; stroke-width: 0.3; stroke-linejoin: miter"/>
   </g>
   <g id="patch_4">
    <path d="M 708.392265 346.085 
L 735.420758 250.227383 
L 504 346.085 
L 504 346.085 
L 504 136.16053 
L 411.595176 123.00002 
L 297.932248 140.017248 
L 306.412219 264.241461 
L 400.377376 346.085 
L 262.764955 446.007827 
L 504 346.085 
L 392.476936 615.325493 
L 504 598.970798 
L 510.028274 360.63854 
L 559.479779 401.564779 
L 677.304225 417.869961 
z
" clip-path="url(#pb784b99981)" style="fill: #45b7d1; opacity: 0.25; stroke: #45b7d1; stroke-width: 0.3; stroke-linejoin: miter"/>
   </g>
   <g id="patch_5">
    <path d="M 680.04108 346.085 
L 523.810337 337.87929 
L 564.608162 285.476838 
L 603.487502 105.900922 
L 504 231.667568 
L 504 346.085 
L 340.448085 182.533085 
L 254.301156 242.656352 
L 338.844033 346.085 
L 431.906768 375.946994 
L 373.851946 476.233054 
L 504 346.085 
L 504 637.50881 
L 574.32986 515.876302 
L 620.243347 462.328347 
L 773.240493 457.608064 
z
" clip-path="url(#pb784b99981)" style="fill: #96ceb4; opacity: 0.25; stroke: #96ceb4; stroke-width: 0.3; stroke-linejoin: miter"/>
   </g>
   <g id="patch_6">
    <path d="M 504 346.085 
L 512.104229 342.728118 
L 626.082156 224.002844 
L 615.523064 76.844507 
L 504 193.974124 
L 472.136268 269.159145 
L 325.510088 167.595088 
L 279.27104 252.999217 
L 427.646488 346.085 
L 479.876495 356.077283 
L 476.111131 373.973869 
L 447.082328 483.496416 
L 504 420.29456 
L 567.296874 498.897172 
L 710.067752 552.152752 
L 504 346.085 
z
" clip-path="url(#pb784b99981)" style="fill: #ffeead; opacity: 0.25; stroke: #ffeead; stroke-width: 0.3; stroke-linejoin: miter"/>
   </g>
   <g id="patch_7">
    <path d="M 560.04304 346.085 
L 504 346.085 
L 612.228861 237.856139 
L 599.022697 116.679915 
L 504 346.085 
L 488.068134 307.622072 
L 399.817047 241.902047 
L 234.759507 234.561936 
L 433.574555 346.085 
L 448.266386 369.170619 
L 479.209895 370.875105 
L 500.798381 353.814392 
L 504 558.840306 
L 615.523064 615.325493 
L 673.081232 515.166232 
L 547.326056 364.03124 
z
" clip-path="url(#pb784b99981)" style="fill: #9b59b6; opacity: 0.25; stroke: #9b59b6; stroke-width: 0.3; stroke-linejoin: miter"/>
   </g>
   <g id="patch_8">
    <path d="M 610.811441 346.085 
L 742.174282 247.429982 
L 518.719125 331.365875 
L 530.206464 282.816999 
L 504 193.082725 
L 392.476936 76.844507 
L 504 346.085 
L 504 346.085 
L 504 346.085 
L 504 346.085 
L 297.932248 552.152752 
L 459.177333 454.29649 
L 504 346.085 
L 510.028274 360.63854 
L 504 346.085 
L 734.556514 441.584635 
z
" clip-path="url(#pb784b99981)" style="fill: #e67e22; opacity: 0.25; stroke: #e67e22; stroke-width: 0.3; stroke-linejoin: miter"/>
   </g>
   <g id="line2d_22">
    <path d="M 795.42381 346.085 
L 773.240493 234.561936 
L 710.067752 140.017248 
L 610.572954 88.795129 
L 504 54.66119 
L 427.527042 161.462948 
L 397.135868 239.220868 
L 486.629646 338.889964 
L 212.57619 346.085 
L 234.759507 457.608064 
L 322.722354 527.362646 
L 448.683137 479.63172 
L 504 581.453519 
L 504 346.085 
L 707.425858 549.510858 
L 715.988204 433.893389 
L 795.42381 346.085 
" clip-path="url(#pb784b99981)" style="fill: none; stroke: #ff6b6b; stroke-width: 2; stroke-linecap: round"/>
    <defs>
     <path id="m582102f99f" d="M 0 3.5 
C 0.928211 3.5 1.81853 3.131218 2.474874 2.474874 
C 3.131218 1.81853 3.5 0.928211 3.5 0 
C 3.5 -0.928211 3.131218 -1.81853 2.474874 -2.474874 
C 1.81853 -3.131218 0.928211 -3.5 0 -3.5 
C -0.928211 -3.5 -1.81853 -3.131218 -2.474874 -2.474874 
C -3.131218 -1.81853 -3.5 -0.928211 -3.5 0 
C -3.5 0.928211 -3.131218 1.81853 -2.474874 2.474874 
C -1.81853 3.131218 -0.928211 3.5 0 3.5 
z
"/>
    </defs>
    <g clip-path="url(#pb784b99981)">
     <use xlink:href="#m582102f99f" x="795.42381" y="346.085" style="fill: #ff6b6b"/>
     <use xlink:href="#m582102f99f" x="773.240493" y="234.561936" style="fill: #ff6b6b"/>
     <use xlink:href="#m582102f99f" x="710.067752" y="140.017248" style="fill: #ff6b6b"/>
     <use xlink:href="#m582102f99f" x="610.572954" y="88.795129" style="fill: #ff6b6b"/>
     <use xlink:href="#m582102f99f" x="504" y="54.66119" style="fill: #ff6b6b"/>
     <use xlink:href="#m582102f99f" x="427.527042" y="161.462948" style="fill: #ff6b6b"/>
     <use xlink:href="#m582102f99f" x="397.135868" y="239.220868" style="fill: #ff6b6b"/>
     <use xlink:href="#m582102f99f" x="486.629646" y="338.889964" style="fill: #ff6b6b"/>
     <use xlink:href="#m582102f99f" x="212.57619" y="346.085" style="fill: #ff6b6b"/>
     <use xlink:href="#m582102f99f" x="234.759507" y="457.608064" style="fill: #ff6b6b"/>
     <use xlink:href="#m582102f99f" x="322.722354" y="527.362646" style="fill: #ff6b6b"/>
     <use xlink:href="#m582102f99f" x="448.683137" y="479.63172" style="fill: #ff6b6b"/>
     <use xlink:href="#m582102f99f" x="504" y="581.453519" style="fill: #ff6b6b"/>
     <use xlink:href="#m582102f99f" x="504" y="346.085" style="fill: #ff6b6b"/>
     <use xlink:href="#m582102f99f" x="707.425858" y="549.510858" style="fill: #ff6b6b"/>
     <use xlink:href="#m582102f99f" x="715.988204" y="433.893389" style="fill: #ff6b6b"/>
     <use xlink:href="#m582102f99f" x="795.42381" y="346.085" style="fill: #ff6b6b"/>
    </g>
   </g>
   <g id="line2d_23">
    <path d="M 708.392265 346.085 
L 735.420758 250.227383 
L 504 346.085 
L 504 346.085 
L 504 136.16053 
L 411.595176 123.00002 
L 297.932248 140.017248 
L 306.412219 264.241461 
L 400.377376 346.085 
L 262.764955 446.007827 
L 504 346.085 
L 392.476936 615.325493 
L 504 598.970798 
L 510.028274 360.63854 
L 559.479779 401.564779 
L 677.304225 417.869961 
L 708.392265 346.085 
" clip-path="url(#pb784b99981)" style="fill: none; stroke: #45b7d1; stroke-width: 2; stroke-linecap: round"/>
    <defs>
     <path id="m6ccf84e6a0" d="M 0 3.5 
C 0.928211 3.5 1.81853 3.131218 2.474874 2.474874 
C 3.131218 1.81853 3.5 0.928211 3.5 0 
C 3.5 -0.928211 3.131218 -1.81853 2.474874 -2.474874 
C 1.81853 -3.131218 0.928211 -3.5 0 -3.5 
C -0.928211 -3.5 -1.81853 -3.131218 -2.474874 -2.474874 
C -3.131218 -1.81853 -3.5 -0.928211 -3.5 0 
C -3.5 0.928211 -3.131218 1.81853 -2.474874 2.474874 
C -1.81853 3.131218 -0.928211 3.5 0 3.5 
z
"/>
    </defs>
    <g clip-path="url(#pb784b99981)">
     <use xlink:href="#m6ccf84e6a0" x="708.392265" y="346.085" style="fill: #45b7d1"/>
     <use xlink:href="#m6ccf84e6a0" x="735.420758" y="250.227383" style="fill: #45b7d1"/>
     <use xlink:href="#m6ccf84e6a0" x="504" y="346.085" style="fill: #45b7d1"/>
     <use xlink:href="#m6ccf84e6a0" x="504" y="346.085" style="fill: #45b7d1"/>
     <use xlink:href="#m6ccf84e6a0" x="504" y="136.16053" style="fill: #45b7d1"/>
     <use xlink:href="#m6ccf84e6a0" x="411.595176" y="123.00002" style="fill: #45b7d1"/>
     <use xlink:href="#m6ccf84e6a0" x="297.932248" y="140.017248" style="fill: #45b7d1"/>
     <use xlink:href="#m6ccf84e6a0" x="306.412219" y="264.241461" style="fill: #45b7d1"/>
     <use xlink:href="#m6ccf84e6a0" x="400.377376" y="346.085" style="fill: #45b7d1"/>
     <use xlink:href="#m6ccf84e6a0" x="262.764955" y="446.007827" style="fill: #45b7d1"/>
     <use xlink:href="#m6ccf84e6a0" x="504" y="346.085" style="fill: #45b7d1"/>
     <use xlink:href="#m6ccf84e6a0" x="392.476936" y="615.325493" style="fill: #45b7d1"/>
     <use xlink:href="#m6ccf84e6a0" x="504" y="598.970798" style="fill: #45b7d1"/>
     <use xlink:href="#m6ccf84e6a0" x="510.028274" y="360.63854" style="fill: #45b7d1"/>
     <use xlink:href="#m6ccf84e6a0" x="559.479779" y="401.564779" style="fill: #45b7d1"/>
     <use xlink:href="#m6ccf84e6a0" x="677.304225" y="417.869961" style="fill: #45b7d1"/>
     <use xlink:href="#m6ccf84e6a0" x="708.392265" y="346.085" style="fill: #45b7d1"/>
    </g>
   </g>
   <g id="line2d_24">
    <path d="M 680.04108 346.085 
L 523.810337 337.87929 
L 564.608162 285.476838 
L 603.487502 105.900922 
L 504 231.667568 
L 504 346.085 
L 340.448085 182.533085 
L 254.301156 242.656352 
L 338.844033 346.085 
L 431.906768 375.946994 
L 373.851946 476.233054 
L 504 346.085 
L 504 637.50881 
L 574.32986 515.876302 
L 620.243347 462.328347 
L 773.240493 457.608064 
L 680.04108 346.085 
" clip-path="url(#pb784b99981)" style="fill: none; stroke: #96ceb4; stroke-width: 2; stroke-linecap: round"/>
    <defs>
     <path id="m9312b6d102" d="M 0 3.5 
C 0.928211 3.5 1.81853 3.131218 2.474874 2.474874 
C 3.131218 1.81853 3.5 0.928211 3.5 0 
C 3.5 -0.928211 3.131218 -1.81853 2.474874 -2.474874 
C 1.81853 -3.131218 0.928211 -3.5 0 -3.5 
C -0.928211 -3.5 -1.81853 -3.131218 -2.474874 -2.474874 
C -3.131218 -1.81853 -3.5 -0.928211 -3.5 0 
C -3.5 0.928211 -3.131218 1.81853 -2.474874 2.474874 
C -1.81853 3.131218 -0.928211 3.5 0 3.5 
z
"/>
    </defs>
    <g clip-path="url(#pb784b99981)">
     <use xlink:href="#m9312b6d102" x="680.04108" y="346.085" style="fill: #96ceb4"/>
     <use xlink:href="#m9312b6d102" x="523.810337" y="337.87929" style="fill: #96ceb4"/>
     <use xlink:href="#m9312b6d102" x="564.608162" y="285.476838" style="fill: #96ceb4"/>
     <use xlink:href="#m9312b6d102" x="603.487502" y="105.900922" style="fill: #96ceb4"/>
     <use xlink:href="#m9312b6d102" x="504" y="231.667568" style="fill: #96ceb4"/>
     <use xlink:href="#m9312b6d102" x="504" y="346.085" style="fill: #96ceb4"/>
     <use xlink:href="#m9312b6d102" x="340.448085" y="182.533085" style="fill: #96ceb4"/>
     <use xlink:href="#m9312b6d102" x="254.301156" y="242.656352" style="fill: #96ceb4"/>
     <use xlink:href="#m9312b6d102" x="338.844033" y="346.085" style="fill: #96ceb4"/>
     <use xlink:href="#m9312b6d102" x="431.906768" y="375.946994" style="fill: #96ceb4"/>
     <use xlink:href="#m9312b6d102" x="373.851946" y="476.233054" style="fill: #96ceb4"/>
     <use xlink:href="#m9312b6d102" x="504" y="346.085" style="fill: #96ceb4"/>
     <use xlink:href="#m9312b6d102" x="504" y="637.50881" style="fill: #96ceb4"/>
     <use xlink:href="#m9312b6d102" x="574.32986" y="515.876302" style="fill: #96ceb4"/>
     <use xlink:href="#m9312b6d102" x="620.243347" y="462.328347" style="fill: #96ceb4"/>
     <use xlink:href="#m9312b6d102" x="773.240493" y="457.608064" style="fill: #96ceb4"/>
     <use xlink:href="#m9312b6d102" x="680.04108" y="346.085" style="fill: #96ceb4"/>
    </g>
   </g>
   <g id="line2d_25">
    <path d="M 504 346.085 
L 512.104229 342.728118 
L 626.082156 224.002844 
L 615.523064 76.844507 
L 504 193.974124 
L 472.136268 269.159145 
L 325.510088 167.595088 
L 279.27104 252.999217 
L 427.646488 346.085 
L 479.876495 356.077283 
L 476.111131 373.973869 
L 447.082328 483.496416 
L 504 420.29456 
L 567.296874 498.897172 
L 710.067752 552.152752 
L 504 346.085 
L 504 346.085 
" clip-path="url(#pb784b99981)" style="fill: none; stroke: #ffeead; stroke-width: 2; stroke-linecap: round"/>
    <defs>
     <path id="m8fd481fd48" d="M 0 3.5 
C 0.928211 3.5 1.81853 3.131218 2.474874 2.474874 
C 3.131218 1.81853 3.5 0.928211 3.5 0 
C 3.5 -0.928211 3.131218 -1.81853 2.474874 -2.474874 
C 1.81853 -3.131218 0.928211 -3.5 0 -3.5 
C -0.928211 -3.5 -1.81853 -3.131218 -2.474874 -2.474874 
C -3.131218 -1.81853 -3.5 -0.928211 -3.5 0 
C -3.5 0.928211 -3.131218 1.81853 -2.474874 2.474874 
C -1.81853 3.131218 -0.928211 3.5 0 3.5 
z
"/>
    </defs>
    <g clip-path="url(#pb784b99981)">
     <use xlink:href="#m8fd481fd48" x="504" y="346.085" style="fill: #ffeead"/>
     <use xlink:href="#m8fd481fd48" x="512.104229" y="342.728118" style="fill: #ffeead"/>
     <use xlink:href="#m8fd481fd48" x="626.082156" y="224.002844" style="fill: #ffeead"/>
     <use xlink:href="#m8fd481fd48" x="615.523064" y="76.844507" style="fill: #ffeead"/>
     <use xlink:href="#m8fd481fd48" x="504" y="193.974124" style="fill: #ffeead"/>
     <use xlink:href="#m8fd481fd48" x="472.136268" y="269.159145" style="fill: #ffeead"/>
     <use xlink:href="#m8fd481fd48" x="325.510088" y="167.595088" style="fill: #ffeead"/>
     <use xlink:href="#m8fd481fd48" x="279.27104" y="252.999217" style="fill: #ffeead"/>
     <use xlink:href="#m8fd481fd48" x="427.646488" y="346.085" style="fill: #ffeead"/>
     <use xlink:href="#m8fd481fd48" x="479.876495" y="356.077283" style="fill: #ffeead"/>
     <use xlink:href="#m8fd481fd48" x="476.111131" y="373.973869" style="fill: #ffeead"/>
     <use xlink:href="#m8fd481fd48" x="447.082328" y="483.496416" style="fill: #ffeead"/>
     <use xlink:href="#m8fd481fd48" x="504" y="420.29456" style="fill: #ffeead"/>
     <use xlink:href="#m8fd481fd48" x="567.296874" y="498.897172" style="fill: #ffeead"/>
     <use xlink:href="#m8fd481fd48" x="710.067752" y="552.152752" style="fill: #ffeead"/>
     <use xlink:href="#m8fd481fd48" x="504" y="346.085" style="fill: #ffeead"/>
     <use xlink:href="#m8fd481fd48" x="504" y="346.085" style="fill: #ffeead"/>
    </g>
   </g>
   <g id="line2d_26">
    <path d="M 560.04304 346.085 
L 504 346.085 
L 612.228861 237.856139 
L 599.022697 116.679915 
L 504 346.085 
L 488.068134 307.622072 
L 399.817047 241.902047 
L 234.759507 234.561936 
L 433.574555 346.085 
L 448.266386 369.170619 
L 479.209895 370.875105 
L 500.798381 353.814392 
L 504 558.840306 
L 615.523064 615.325493 
L 673.081232 515.166232 
L 547.326056 364.03124 
L 560.04304 346.085 
" clip-path="url(#pb784b99981)" style="fill: none; stroke: #9b59b6; stroke-width: 2; stroke-linecap: round"/>
    <defs>
     <path id="md55ca911a8" d="M 0 3.5 
C 0.928211 3.5 1.81853 3.131218 2.474874 2.474874 
C 3.131218 1.81853 3.5 0.928211 3.5 0 
C 3.5 -0.928211 3.131218 -1.81853 2.474874 -2.474874 
C 1.81853 -3.131218 0.928211 -3.5 0 -3.5 
C -0.928211 -3.5 -1.81853 -3.131218 -2.474874 -2.474874 
C -3.131218 -1.81853 -3.5 -0.928211 -3.5 0 
C -3.5 0.928211 -3.131218 1.81853 -2.474874 2.474874 
C -1.81853 3.131218 -0.928211 3.5 0 3.5 
z
"/>
    </defs>
    <g clip-path="url(#pb784b99981)">
     <use xlink:href="#md55ca911a8" x="560.04304" y="346.085" style="fill: #9b59b6"/>
     <use xlink:href="#md55ca911a8" x="504" y="346.085" style="fill: #9b59b6"/>
     <use xlink:href="#md55ca911a8" x="612.228861" y="237.856139" style="fill: #9b59b6"/>
     <use xlink:href="#md55ca911a8" x="599.022697" y="116.679915" style="fill: #9b59b6"/>
     <use xlink:href="#md55ca911a8" x="504" y="346.085" style="fill: #9b59b6"/>
     <use xlink:href="#md55ca911a8" x="488.068134" y="307.622072" style="fill: #9b59b6"/>
     <use xlink:href="#md55ca911a8" x="399.817047" y="241.902047" style="fill: #9b59b6"/>
     <use xlink:href="#md55ca911a8" x="234.759507" y="234.561936" style="fill: #9b59b6"/>
     <use xlink:href="#md55ca911a8" x="433.574555" y="346.085" style="fill: #9b59b6"/>
     <use xlink:href="#md55ca911a8" x="448.266386" y="369.170619" style="fill: #9b59b6"/>
     <use xlink:href="#md55ca911a8" x="479.209895" y="370.875105" style="fill: #9b59b6"/>
     <use xlink:href="#md55ca911a8" x="500.798381" y="353.814392" style="fill: #9b59b6"/>
     <use xlink:href="#md55ca911a8" x="504" y="558.840306" style="fill: #9b59b6"/>
     <use xlink:href="#md55ca911a8" x="615.523064" y="615.325493" style="fill: #9b59b6"/>
     <use xlink:href="#md55ca911a8" x="673.081232" y="515.166232" style="fill: #9b59b6"/>
     <use xlink:href="#md55ca911a8" x="547.326056" y="364.03124" style="fill: #9b59b6"/>
     <use xlink:href="#md55ca911a8" x="560.04304" y="346.085" style="fill: #9b59b6"/>
    </g>
   </g>
   <g id="line2d_27">
    <path d="M 610.811441 346.085 
L 742.174282 247.429982 
L 518.719125 331.365875 
L 530.206464 282.816999 
L 504 193.082725 
L 392.476936 76.844507 
L 504 346.085 
L 504 346.085 
L 504 346.085 
L 504 346.085 
L 297.932248 552.152752 
L 459.177333 454.29649 
L 504 346.085 
L 510.028274 360.63854 
L 504 346.085 
L 734.556514 441.584635 
L 610.811441 346.085 
" clip-path="url(#pb784b99981)" style="fill: none; stroke: #e67e22; stroke-width: 2; stroke-linecap: round"/>
    <defs>
     <path id="m719331b202" d="M 0 3.5 
C 0.928211 3.5 1.81853 3.131218 2.474874 2.474874 
C 3.131218 1.81853 3.5 0.928211 3.5 0 
C 3.5 -0.928211 3.131218 -1.81853 2.474874 -2.474874 
C 1.81853 -3.131218 0.928211 -3.5 0 -3.5 
C -0.928211 -3.5 -1.81853 -3.131218 -2.474874 -2.474874 
C -3.131218 -1.81853 -3.5 -0.928211 -3.5 0 
C -3.5 0.928211 -3.131218 1.81853 -2.474874 2.474874 
C -1.81853 3.131218 -0.928211 3.5 0 3.5 
z
"/>
    </defs>
    <g clip-path="url(#pb784b99981)">
     <use xlink:href="#m719331b202" x="610.811441" y="346.085" style="fill: #e67e22"/>
     <use xlink:href="#m719331b202" x="742.174282" y="247.429982" style="fill: #e67e22"/>
     <use xlink:href="#m719331b202" x="518.719125" y="331.365875" style="fill: #e67e22"/>
     <use xlink:href="#m719331b202" x="530.206464" y="282.816999" style="fill: #e67e22"/>
     <use xlink:href="#m719331b202" x="504" y="193.082725" style="fill: #e67e22"/>
     <use xlink:href="#m719331b202" x="392.476936" y="76.844507" style="fill: #e67e22"/>
     <use xlink:href="#m719331b202" x="504" y="346.085" style="fill: #e67e22"/>
     <use xlink:href="#m719331b202" x="504" y="346.085" style="fill: #e67e22"/>
     <use xlink:href="#m719331b202" x="504" y="346.085" style="fill: #e67e22"/>
     <use xlink:href="#m719331b202" x="504" y="346.085" style="fill: #e67e22"/>
     <use xlink:href="#m719331b202" x="297.932248" y="552.152752" style="fill: #e67e22"/>
     <use xlink:href="#m719331b202" x="459.177333" y="454.29649" style="fill: #e67e22"/>
     <use xlink:href="#m719331b202" x="504" y="346.085" style="fill: #e67e22"/>
     <use xlink:href="#m719331b202" x="510.028274" y="360.63854" style="fill: #e67e22"/>
     <use xlink:href="#m719331b202" x="504" y="346.085" style="fill: #e67e22"/>
     <use xlink:href="#m719331b202" x="734.556514" y="441.584635" style="fill: #e67e22"/>
     <use xlink:href="#m719331b202" x="610.811441" y="346.085" style="fill: #e67e22"/>
    </g>
   </g>
   <g id="patch_9">
    <path d="M 809.995 346.085 
C 809.995 305.902105 802.079846 266.109938 786.702518 228.985783 
C 771.325189 191.861629 748.784737 158.127458 720.37114 129.71386 
C 691.957542 101.300263 658.223371 78.759811 621.099217 63.382482 
C 583.975062 48.005154 544.182895 40.09 504 40.09 
C 463.817105 40.09 424.024938 48.005154 386.900783 63.382482 
C 349.776629 78.759811 316.042458 101.300263 287.62886 129.71386 
C 259.215263 158.127458 236.674811 191.861629 221.297482 228.985783 
C 205.920154 266.109938 198.005 305.902105 198.005 346.085 
C 198.005 386.267895 205.920154 426.060062 221.297482 463.184217 
C 236.674811 500.308371 259.215263 534.042542 287.62886 562.45614 
C 316.042458 590.869737 349.776629 613.410189 386.900783 628.787518 
C 424.024938 644.164846 463.817105 652.08 504 652.08 
C 544.182895 652.08 583.975062 644.164846 621.099217 628.787518 
C 658.223371 613.410189 691.957542 590.869737 720.37114 562.45614 
C 748.784737 534.042542 771.325189 500.308371 786.702518 463.184217 
C 802.079846 426.060062 809.995 386.267895 809.995 346.085 
" style="fill: none"/>
   </g>
   <g id="legend_1">
    <g id="line2d_28">
     <path d="M 196.833 606.070375 
L 208.833 606.070375 
L 220.833 606.070375 
" style="fill: none; stroke: #ff6b6b; stroke-width: 2; stroke-linecap: round"/>
     <g>
      <use xlink:href="#m582102f99f" x="208.833" y="606.070375" style="fill: #ff6b6b"/>
     </g>
    </g>
    <g id="text_22">
     <!-- LanDiff -->
     <g style="fill: #262626" transform="translate(230.433 610.270375) scale(0.12 -0.12)">
      <defs>
       <path id="ArialMT-4c" d="M 469 0 
L 469 4581 
L 1075 4581 
L 1075 541 
L 3331 541 
L 3331 0 
L 469 0 
z
" transform="scale(0.015625)"/>
       <path id="ArialMT-44" d="M 494 0 
L 494 4581 
L 2072 4581 
Q 2606 4581 2888 4516 
Q 3281 4425 3559 4188 
Q 3922 3881 4101 3404 
Q 4281 2928 4281 2316 
Q 4281 1794 4159 1391 
Q 4038 988 3847 723 
Q 3656 459 3429 307 
Q 3203 156 2883 78 
Q 2563 0 2147 0 
L 494 0 
z
M 1100 541 
L 2078 541 
Q 2531 541 2789 625 
Q 3047 709 3200 863 
Q 3416 1078 3536 1442 
Q 3656 1806 3656 2325 
Q 3656 3044 3420 3430 
Q 3184 3816 2847 3947 
Q 2603 4041 2063 4041 
L 1100 4041 
L 1100 541 
z
" transform="scale(0.015625)"/>
      </defs>
      <use xlink:href="#ArialMT-4c"/>
      <use xlink:href="#ArialMT-61" transform="translate(55.615234 0)"/>
      <use xlink:href="#ArialMT-6e" transform="translate(111.230469 0)"/>
      <use xlink:href="#ArialMT-44" transform="translate(166.845703 0)"/>
      <use xlink:href="#ArialMT-69" transform="translate(239.0625 0)"/>
      <use xlink:href="#ArialMT-66" transform="translate(261.279297 0)"/>
      <use xlink:href="#ArialMT-66" transform="translate(287.3125 0)"/>
     </g>
    </g>
    <g id="line2d_29">
     <path d="M 196.833 623.04475 
L 208.833 623.04475 
L 220.833 623.04475 
" style="fill: none; stroke: #45b7d1; stroke-width: 2; stroke-linecap: round"/>
     <g>
      <use xlink:href="#m6ccf84e6a0" x="208.833" y="623.04475" style="fill: #45b7d1"/>
     </g>
    </g>
    <g id="text_23">
     <!-- Sora -->
     <g style="fill: #262626" transform="translate(230.433 627.24475) scale(0.12 -0.12)">
      <defs>
       <path id="ArialMT-53" d="M 288 1472 
L 859 1522 
Q 900 1178 1048 958 
Q 1197 738 1509 602 
Q 1822 466 2213 466 
Q 2559 466 2825 569 
Q 3091 672 3220 851 
Q 3350 1031 3350 1244 
Q 3350 1459 3225 1620 
Q 3100 1781 2813 1891 
Q 2628 1963 1997 2114 
Q 1366 2266 1113 2400 
Q 784 2572 623 2826 
Q 463 3081 463 3397 
Q 463 3744 659 4045 
Q 856 4347 1234 4503 
Q 1613 4659 2075 4659 
Q 2584 4659 2973 4495 
Q 3363 4331 3572 4012 
Q 3781 3694 3797 3291 
L 3216 3247 
Q 3169 3681 2898 3903 
Q 2628 4125 2100 4125 
Q 1550 4125 1298 3923 
Q 1047 3722 1047 3438 
Q 1047 3191 1225 3031 
Q 1400 2872 2139 2705 
Q 2878 2538 3153 2413 
Q 3553 2228 3743 1945 
Q 3934 1663 3934 1294 
Q 3934 928 3725 604 
Q 3516 281 3123 101 
Q 2731 -78 2241 -78 
Q 1619 -78 1198 103 
Q 778 284 539 648 
Q 300 1013 288 1472 
z
" transform="scale(0.015625)"/>
      </defs>
      <use xlink:href="#ArialMT-53"/>
      <use xlink:href="#ArialMT-6f" transform="translate(66.699219 0)"/>
      <use xlink:href="#ArialMT-72" transform="translate(122.314453 0)"/>
      <use xlink:href="#ArialMT-61" transform="translate(155.615234 0)"/>
     </g>
    </g>
    <g id="line2d_30">
     <path d="M 196.833 640.019125 
L 208.833 640.019125 
L 220.833 640.019125 
" style="fill: none; stroke: #96ceb4; stroke-width: 2; stroke-linecap: round"/>
     <g>
      <use xlink:href="#m9312b6d102" x="208.833" y="640.019125" style="fill: #96ceb4"/>
     </g>
    </g>
    <g id="text_24">
     <!-- Hailuo -->
     <g style="fill: #262626" transform="translate(230.433 644.219125) scale(0.12 -0.12)">
      <defs>
       <path id="ArialMT-48" d="M 513 0 
L 513 4581 
L 1119 4581 
L 1119 2700 
L 3500 2700 
L 3500 4581 
L 4106 4581 
L 4106 0 
L 3500 0 
L 3500 2159 
L 1119 2159 
L 1119 0 
L 513 0 
z
" transform="scale(0.015625)"/>
      </defs>
      <use xlink:href="#ArialMT-48"/>
      <use xlink:href="#ArialMT-61" transform="translate(72.216797 0)"/>
      <use xlink:href="#ArialMT-69" transform="translate(127.832031 0)"/>
      <use xlink:href="#ArialMT-6c" transform="translate(150.048828 0)"/>
      <use xlink:href="#ArialMT-75" transform="translate(172.265625 0)"/>
      <use xlink:href="#ArialMT-6f" transform="translate(227.880859 0)"/>
     </g>
    </g>
    <g id="line2d_31">
     <path d="M 196.833 656.9935 
L 208.833 656.9935 
L 220.833 656.9935 
" style="fill: none; stroke: #ffeead; stroke-width: 2; stroke-linecap: round"/>
     <g>
      <use xlink:href="#m8fd481fd48" x="208.833" y="656.9935" style="fill: #ffeead"/>
     </g>
    </g>
    <g id="text_25">
     <!-- HunyuanVideo -->
     <g style="fill: #262626" transform="translate(230.433 661.1935) scale(0.12 -0.12)">
      <defs>
       <path id="ArialMT-56" d="M 1803 0 
L 28 4581 
L 684 4581 
L 1875 1253 
Q 2019 853 2116 503 
Q 2222 878 2363 1253 
L 3600 4581 
L 4219 4581 
L 2425 0 
L 1803 0 
z
" transform="scale(0.015625)"/>
      </defs>
      <use xlink:href="#ArialMT-48"/>
      <use xlink:href="#ArialMT-75" transform="translate(72.216797 0)"/>
      <use xlink:href="#ArialMT-6e" transform="translate(127.832031 0)"/>
      <use xlink:href="#ArialMT-79" transform="translate(183.447266 0)"/>
      <use xlink:href="#ArialMT-75" transform="translate(233.447266 0)"/>
      <use xlink:href="#ArialMT-61" transform="translate(289.0625 0)"/>
      <use xlink:href="#ArialMT-6e" transform="translate(344.677734 0)"/>
      <use xlink:href="#ArialMT-56" transform="translate(400.292969 0)"/>
      <use xlink:href="#ArialMT-69" transform="translate(465.242188 0)"/>
      <use xlink:href="#ArialMT-64" transform="translate(487.458984 0)"/>
      <use xlink:href="#ArialMT-65" transform="translate(543.074219 0)"/>
      <use xlink:href="#ArialMT-6f" transform="translate(598.689453 0)"/>
     </g>
    </g>
    <g id="line2d_32">
     <path d="M 196.833 674.1085 
L 208.833 674.1085 
L 220.833 674.1085 
" style="fill: none; stroke: #9b59b6; stroke-width: 2; stroke-linecap: round"/>
     <g>
      <use xlink:href="#md55ca911a8" x="208.833" y="674.1085" style="fill: #9b59b6"/>
     </g>
    </g>
    <g id="text_26">
     <!-- Kling -->
     <g style="fill: #262626" transform="translate(230.433 678.3085) scale(0.12 -0.12)">
      <defs>
       <path id="ArialMT-4b" d="M 469 0 
L 469 4581 
L 1075 4581 
L 1075 2309 
L 3350 4581 
L 4172 4581 
L 2250 2725 
L 4256 0 
L 3456 0 
L 1825 2319 
L 1075 1588 
L 1075 0 
L 469 0 
z
" transform="scale(0.015625)"/>
      </defs>
      <use xlink:href="#ArialMT-4b"/>
      <use xlink:href="#ArialMT-6c" transform="translate(66.699219 0)"/>
      <use xlink:href="#ArialMT-69" transform="translate(88.916016 0)"/>
      <use xlink:href="#ArialMT-6e" transform="translate(111.132812 0)"/>
      <use xlink:href="#ArialMT-67" transform="translate(166.748047 0)"/>
     </g>
    </g>
    <g id="line2d_33">
     <path d="M 196.833 691.36975 
L 208.833 691.36975 
L 220.833 691.36975 
" style="fill: none; stroke: #e67e22; stroke-width: 2; stroke-linecap: round"/>
     <g>
      <use xlink:href="#m719331b202" x="208.833" y="691.36975" style="fill: #e67e22"/>
     </g>
    </g>
    <g id="text_27">
     <!-- CogVideoX-5B -->
     <g style="fill: #262626" transform="translate(230.433 695.56975) scale(0.12 -0.12)">
      <defs>
       <path id="ArialMT-43" d="M 3763 1606 
L 4369 1453 
Q 4178 706 3683 314 
Q 3188 -78 2472 -78 
Q 1731 -78 1267 223 
Q 803 525 561 1097 
Q 319 1669 319 2325 
Q 319 3041 592 3573 
Q 866 4106 1370 4382 
Q 1875 4659 2481 4659 
Q 3169 4659 3637 4309 
Q 4106 3959 4291 3325 
L 3694 3184 
Q 3534 3684 3231 3912 
Q 2928 4141 2469 4141 
Q 1941 4141 1586 3887 
Q 1231 3634 1087 3207 
Q 944 2781 944 2328 
Q 944 1744 1114 1308 
Q 1284 872 1643 656 
Q 2003 441 2422 441 
Q 2931 441 3284 734 
Q 3638 1028 3763 1606 
z
" transform="scale(0.015625)"/>
       <path id="ArialMT-58" d="M 28 0 
L 1800 2388 
L 238 4581 
L 959 4581 
L 1791 3406 
Q 2050 3041 2159 2844 
Q 2313 3094 2522 3366 
L 3444 4581 
L 4103 4581 
L 2494 2422 
L 4228 0 
L 3478 0 
L 2325 1634 
Q 2228 1775 2125 1941 
Q 1972 1691 1906 1597 
L 756 0 
L 28 0 
z
" transform="scale(0.015625)"/>
       <path id="ArialMT-2d" d="M 203 1375 
L 203 1941 
L 1931 1941 
L 1931 1375 
L 203 1375 
z
" transform="scale(0.015625)"/>
       <path id="ArialMT-35" d="M 266 1200 
L 856 1250 
Q 922 819 1161 601 
Q 1400 384 1738 384 
Q 2144 384 2425 690 
Q 2706 997 2706 1503 
Q 2706 1984 2436 2262 
Q 2166 2541 1728 2541 
Q 1456 2541 1237 2417 
Q 1019 2294 894 2097 
L 366 2166 
L 809 4519 
L 3088 4519 
L 3088 3981 
L 1259 3981 
L 1013 2750 
Q 1425 3038 1878 3038 
Q 2478 3038 2890 2622 
Q 3303 2206 3303 1553 
Q 3303 931 2941 478 
Q 2500 -78 1738 -78 
Q 1113 -78 717 272 
Q 322 622 266 1200 
z
" transform="scale(0.015625)"/>
       <path id="ArialMT-42" d="M 469 0 
L 469 4581 
L 2188 4581 
Q 2713 4581 3030 4442 
Q 3347 4303 3526 4014 
Q 3706 3725 3706 3409 
Q 3706 3116 3547 2856 
Q 3388 2597 3066 2438 
Q 3481 2316 3704 2022 
Q 3928 1728 3928 1328 
Q 3928 1006 3792 729 
Q 3656 453 3456 303 
Q 3256 153 2954 76 
Q 2653 0 2216 0 
L 469 0 
z
M 1075 2656 
L 2066 2656 
Q 2469 2656 2644 2709 
Q 2875 2778 2992 2937 
Q 3109 3097 3109 3338 
Q 3109 3566 3000 3739 
Q 2891 3913 2687 3977 
Q 2484 4041 1991 4041 
L 1075 4041 
L 1075 2656 
z
M 1075 541 
L 2216 541 
Q 2509 541 2628 563 
Q 2838 600 2978 687 
Q 3119 775 3209 942 
Q 3300 1109 3300 1328 
Q 3300 1584 3169 1773 
Q 3038 1963 2805 2039 
Q 2572 2116 2134 2116 
L 1075 2116 
L 1075 541 
z
" transform="scale(0.015625)"/>
      </defs>
      <use xlink:href="#ArialMT-43"/>
      <use xlink:href="#ArialMT-6f" transform="translate(72.216797 0)"/>
      <use xlink:href="#ArialMT-67" transform="translate(127.832031 0)"/>
      <use xlink:href="#ArialMT-56" transform="translate(183.447266 0)"/>
      <use xlink:href="#ArialMT-69" transform="translate(248.396484 0)"/>
      <use xlink:href="#ArialMT-64" transform="translate(270.613281 0)"/>
      <use xlink:href="#ArialMT-65" transform="translate(326.228516 0)"/>
      <use xlink:href="#ArialMT-6f" transform="translate(381.84375 0)"/>
      <use xlink:href="#ArialMT-58" transform="translate(437.458984 0)"/>
      <use xlink:href="#ArialMT-2d" transform="translate(504.158203 0)"/>
      <use xlink:href="#ArialMT-35" transform="translate(537.458984 0)"/>
      <use xlink:href="#ArialMT-42" transform="translate(593.074219 0)"/>
     </g>
    </g>
   </g>
  </g>
 </g>
 <defs>
  <clipPath id="pb784b99981">
   <path d="M 809.995 346.085 
C 809.995 305.902105 802.079846 266.109938 786.702518 228.985783 
C 771.325189 191.861629 748.784737 158.127458 720.37114 129.71386 
C 691.957542 101.300263 658.223371 78.759811 621.099217 63.382482 
C 583.975062 48.005154 544.182895 40.09 504 40.09 
C 463.817105 40.09 424.024938 48.005154 386.900783 63.382482 
C 349.776629 78.759811 316.042458 101.300263 287.62886 129.71386 
C 259.215263 158.127458 236.674811 191.861629 221.297482 228.985783 
C 205.920154 266.109938 198.005 305.902105 198.005 346.085 
C 198.005 386.267895 205.920154 426.060062 221.297482 463.184217 
C 236.674811 500.308371 259.215263 534.042542 287.62886 562.45614 
C 316.042458 590.869737 349.776629 613.410189 386.900783 628.787518 
C 424.024938 644.164846 463.817105 652.08 504 652.08 
C 544.182895 652.08 583.975062 644.164846 621.099217 628.787518 
C 658.223371 613.410189 691.957542 590.869737 720.37114 562.45614 
C 748.784737 534.042542 771.325189 500.308371 786.702518 463.184217 
C 802.079846 426.060062 809.995 386.267895 809.995 346.085 
M 504 346.085 
C 504 346.085 504 346.085 504 346.085 
C 504 346.085 504 346.085 504 346.085 
C 504 346.085 504 346.085 504 346.085 
C 504 346.085 504 346.085 504 346.085 
C 504 346.085 504 346.085 504 346.085 
C 504 346.085 504 346.085 504 346.085 
C 504 346.085 504 346.085 504 346.085 
C 504 346.085 504 346.085 504 346.085 
C 504 346.085 504 346.085 504 346.085 
C 504 346.085 504 346.085 504 346.085 
C 504 346.085 504 346.085 504 346.085 
C 504 346.085 504 346.085 504 346.085 
C 504 346.085 504 346.085 504 346.085 
C 504 346.085 504 346.085 504 346.085 
C 504 346.085 504 346.085 504 346.085 
C 504 346.085 504 346.085 504 346.085 
z
"/>
  </clipPath>
 </defs>
</svg>
